<svg width="29" height="29" viewBox="0 0 29 29" fill="none" xmlns="http://www.w3.org/2000/svg">
<g clip-path="url(#clip0_7_253)">
<path fill-rule="evenodd" clip-rule="evenodd" d="M14.4999 0C11.0567 2.63825e-05 7.72592 1.25623 5.10347 3.54383C2.48102 5.83143 0.738056 9.00114 0.186461 12.4858C-0.365133 15.9704 0.310636 19.5426 2.09285 22.5632C3.87507 25.5837 6.64742 27.8555 9.91385 28.972C10.6391 29.1019 10.9074 28.6562 10.9074 28.2657C10.9074 27.9126 10.8892 26.7377 10.8892 25.4966C7.24617 26.1842 6.30313 24.5857 6.01334 23.7496C5.69041 22.9357 5.17887 22.2149 4.52302 21.6494C4.01548 21.371 3.2902 20.6834 4.50481 20.6647C4.96904 20.7163 5.41421 20.8823 5.80243 21.1483C6.19065 21.4144 6.51041 21.7727 6.73449 22.1927C6.93278 22.5579 7.1994 22.8795 7.51909 23.1389C7.83879 23.3983 8.20526 23.5905 8.59751 23.7044C8.98977 23.8184 9.4001 23.8519 9.805 23.8029C10.2099 23.754 10.6014 23.6237 10.9571 23.4194C11.0198 22.6637 11.3481 21.9572 11.8811 21.4312C8.65204 21.0594 5.28309 19.7776 5.28309 14.0908C5.26375 12.6126 5.79701 11.1829 6.77341 10.0951C6.33001 8.81093 6.38184 7.40162 6.9183 6.15535C6.9183 6.15535 8.13291 5.76486 10.9057 7.68336C13.2785 7.01427 15.7834 7.01427 18.1562 7.68336C20.929 5.75042 22.1436 6.15535 22.1436 6.15535C22.68 7.40162 22.7319 8.81093 22.2885 10.0951C23.2678 11.181 23.8015 12.612 23.7788 14.0908C23.7788 19.7963 20.3891 21.0594 17.1634 21.4312C17.5095 21.7909 17.776 22.2226 17.9449 22.6972C18.1137 23.1718 18.181 23.6781 18.1421 24.1817C18.1421 26.1698 18.1239 27.7682 18.1239 28.2699C18.1239 28.6604 18.3954 29.1248 19.1174 28.9762C22.3802 27.8526 25.1471 25.5762 26.9238 22.5537C28.7005 19.5311 29.3713 15.9594 28.8163 12.4766C28.2613 8.9938 26.5167 5.82672 23.8941 3.54117C21.2715 1.25562 17.9419 0.00049233 14.4999 0V0Z" fill="#1B1F23"/>
</g>
<defs>
<clipPath id="clip0_7_253">
<rect width="29" height="29" fill="white"/>
</clipPath>
</defs>
</svg>
