<svg width="29" height="29" viewBox="0 0 29 29" fill="none" xmlns="http://www.w3.org/2000/svg">
<g clip-path="url(#clip0_7_255)">
<path d="M0.94103 4.61723e-05C0.807023 -0.00355885 0.673868 0.0264451 0.55012 0.088131C0.426371 0.149817 0.314766 0.24182 0.222475 0.35823C0.134847 0.468783 0.0699106 0.602245 0.0328073 0.748052C-0.00429605 0.89386 -0.0125481 1.04801 0.00870443 1.1983L3.95627 27.8265C4.01667 28.1633 4.17301 28.4645 4.39849 28.6784C4.62398 28.8923 4.90457 29.0057 5.19218 28.999H24.1144C24.3299 29.009 24.5414 28.9274 24.7114 28.7685C24.8815 28.6096 24.999 28.3837 25.0432 28.1309L28.988 1.20367C29.0089 1.05372 29.0005 0.900012 28.9634 0.754622C28.9263 0.609232 28.8616 0.476124 28.7743 0.365759C28.682 0.249349 28.5704 0.157346 28.4466 0.0956603C28.3229 0.0339745 28.1897 0.00397052 28.0557 0.00757553L0.94103 4.61723e-05ZM17.5495 19.2452H11.5101L9.87447 9.74416H19.0136L17.5495 19.2452Z" fill="#2684FF"/>
<path d="M27.7317 9.74414H19.0129L17.5498 19.2452H11.5103L4.37866 28.6537C4.61004 28.8732 4.89632 28.9933 5.19153 28.9946H24.1192C24.3347 29.0047 24.5462 28.923 24.7162 28.7641C24.8862 28.6053 25.0037 28.3794 25.0479 28.1266L27.7317 9.74414Z" fill="url(#paint0_linear_7_255)"/>
</g>
<defs>
<linearGradient id="paint0_linear_7_255" x1="29.7401" y1="12.4008" x2="18.1948" y2="27.155" gradientUnits="userSpaceOnUse">
<stop offset="0.18" stop-color="#0052CC"/>
<stop offset="1" stop-color="#2684FF"/>
</linearGradient>
<clipPath id="clip0_7_255">
<rect width="29" height="29" fill="white"/>
</clipPath>
</defs>
</svg>
