<svg width="29" height="29" viewBox="0 0 29 29" fill="none" xmlns="http://www.w3.org/2000/svg">
<g clip-path="url(#clip0_7_258)">
<path fill-rule="evenodd" clip-rule="evenodd" d="M28.9477 16.582L27.3246 11.1609L24.1072 0.415682C24.0648 0.293288 23.9921 0.188473 23.8984 0.114677C23.8048 0.0408818 23.6944 0.00146484 23.5814 0.00146484C23.4685 0.00146484 23.3581 0.0408818 23.2644 0.114677C23.1707 0.188473 23.098 0.293288 23.0556 0.415682L19.8382 11.1609H9.16058L5.94316 0.415682C5.90075 0.293288 5.82806 0.188473 5.73438 0.114677C5.64071 0.0408818 5.53032 0.00146484 5.41736 0.00146484C5.3044 0.00146484 5.19401 0.0408818 5.10034 0.114677C5.00667 0.188473 4.93397 0.293288 4.89157 0.415682L1.67414 11.1609L0.0544224 16.582C-0.0165991 16.8259 -0.0156633 17.0907 0.0570805 17.334C0.129824 17.5773 0.270183 17.785 0.455754 17.9242L14.4998 29.0009L28.5439 17.9242C28.7294 17.785 28.8698 17.5773 28.9425 17.334C29.0153 17.0907 29.0162 16.8259 28.9452 16.582" fill="#FC6D26"/>
<path fill-rule="evenodd" clip-rule="evenodd" d="M14.5004 29L19.8396 11.156H9.16028L14.5004 28.9961V29Z" fill="#E24329"/>
<path fill-rule="evenodd" clip-rule="evenodd" d="M14.5004 29.001L9.1603 11.1599H1.67725L14.5004 29.001Z" fill="#FC6D26"/>
<path fill-rule="evenodd" clip-rule="evenodd" d="M1.67644 11.1599L0.0541782 16.581C-0.0168432 16.825 -0.0159074 17.0897 0.0568363 17.333C0.12958 17.5763 0.269939 17.7841 0.45551 17.9232L14.4996 29L1.67644 11.1599Z" fill="#FCA326"/>
<path fill-rule="evenodd" clip-rule="evenodd" d="M1.67725 11.1599H9.16114L5.94372 0.414705C5.90132 0.292311 5.82862 0.187497 5.73495 0.113701C5.64127 0.0399053 5.53088 0.000488281 5.41793 0.000488281C5.30497 0.000488281 5.19458 0.0399053 5.1009 0.113701C5.00723 0.187497 4.93453 0.292311 4.89213 0.414705L1.67725 11.1599Z" fill="#E24329"/>
<path fill-rule="evenodd" clip-rule="evenodd" d="M14.5004 29.0009L19.8404 11.1609H27.3243L14.5004 29.0009Z" fill="#FC6D26"/>
<path fill-rule="evenodd" clip-rule="evenodd" d="M27.3235 11.1599L28.9466 16.581C29.0176 16.825 29.0167 17.0897 28.9439 17.333C28.8712 17.5763 28.7308 17.7841 28.5453 17.9232L14.5004 29L27.3235 11.1599Z" fill="#FCA326"/>
<path fill-rule="evenodd" clip-rule="evenodd" d="M27.3235 11.1599H19.8396L23.057 0.414705C23.0994 0.292311 23.1721 0.187497 23.2658 0.113701C23.3595 0.0399053 23.4699 0.000488281 23.5828 0.000488281C23.6958 0.000488281 23.8062 0.0399053 23.8998 0.113701C23.9935 0.187497 24.0662 0.292311 24.1086 0.414705L27.326 11.1599H27.3235Z" fill="#E24329"/>
</g>
<defs>
<clipPath id="clip0_7_258">
<rect width="29" height="29" fill="white"/>
</clipPath>
</defs>
</svg>
