<svg width="24" height="25" viewBox="0 0 24 25" fill="none" xmlns="http://www.w3.org/2000/svg">
<g clip-path="url(#clip0_7_72)">
<path fill-rule="evenodd" clip-rule="evenodd" d="M14.07 1.19512C14.2254 1.46555 14.3257 1.76406 14.3652 2.07344C14.4047 2.38283 14.3826 2.69697 14.3002 2.99777C14.2177 3.29857 14.0765 3.58008 13.8848 3.82608C13.6931 4.07208 13.4546 4.27771 13.183 4.43112L6.073 8.47112C5.98099 8.5233 5.90441 8.59889 5.85102 8.69021C5.79763 8.78153 5.76934 8.88534 5.769 8.99112V15.3341C5.76934 15.4399 5.79763 15.5437 5.85102 15.635C5.90441 15.7263 5.98099 15.8019 6.073 15.8541L11.701 19.0531C11.7921 19.1049 11.8952 19.1322 12 19.1322C12.1048 19.1322 12.2079 19.1049 12.299 19.0531L17.927 15.8551C18.0192 15.8028 18.0958 15.7271 18.1492 15.6356C18.2026 15.5441 18.2308 15.4401 18.231 15.3341V11.3901L13.171 14.2281C12.6204 14.5371 11.97 14.6159 11.3616 14.4473C10.7531 14.2787 10.236 13.8764 9.923 13.3281C9.76928 13.0569 9.67074 12.7579 9.63305 12.4484C9.59536 12.1389 9.61926 11.825 9.70337 11.5248C9.78749 11.2246 9.93016 10.944 10.1232 10.6991C10.3162 10.4543 10.5557 10.25 10.828 10.0981L18.067 6.03612C20.272 4.80012 23 6.38312 23 8.90112V15.8151C23 17.4351 22.127 18.9301 20.713 19.7341L14.252 23.4051C13.5655 23.795 12.7895 24 12 24C11.2105 24 10.4345 23.795 9.748 23.4051L3.287 19.7341C2.59342 19.3413 2.01636 18.7717 1.61462 18.0833C1.21287 17.3948 1.00079 16.6122 1 15.8151V8.51012C1 6.89012 1.873 5.39512 3.287 4.59212L10.817 0.312117C11.366 0.000134438 12.0161 -0.0821194 12.6255 0.0832947C13.2348 0.248709 13.7541 0.648371 14.07 1.19512Z" fill="url(#paint0_linear_7_72)"/>
</g>
<defs>
<linearGradient id="paint0_linear_7_72" x1="17.558" y1="3.62912" x2="6.356" y2="21.3401" gradientUnits="userSpaceOnUse">
<stop stop-color="#FFB45B"/>
<stop offset="1" stop-color="#FF8A00"/>
</linearGradient>
<clipPath id="clip0_7_72">
<rect width="24" height="24" fill="white"/>
</clipPath>
</defs>
</svg>
