<svg width="124" height="82" viewBox="0 0 124 82" fill="none" xmlns="http://www.w3.org/2000/svg">
<path d="M77.5802 41.696C76.8842 42.3009 76.0224 42.6139 75.0334 42.6139H67.7932C66.8055 42.6139 65.9623 42.3008 65.2689 41.696C64.5742 41.0897 64.2163 40.298 64.2163 39.3367V38.7528C64.2163 37.8335 64.5742 37.0616 65.31 36.4356C66.0472 35.7886 66.8678 35.4756 67.7932 35.4756H72.403V37.6455H67.7932C67.479 37.6455 67.2046 37.7506 66.9315 37.9597C66.657 38.1886 66.5311 38.4397 66.5311 38.7527V39.3366C66.5311 40.0678 66.9513 40.4229 67.7932 40.4229H75.0334C75.8951 40.4229 76.3167 40.068 76.3167 39.3366V33.7435C76.3167 33.4501 76.1908 33.2004 75.9177 32.9715C75.6432 32.7415 75.3489 32.636 75.0334 32.636H64.4271V30.4648H75.0334C75.98 30.4648 76.8006 30.7791 77.5166 31.4261C78.2537 32.0732 78.6103 32.8451 78.6103 33.7434V39.3365C78.6103 40.2978 78.2736 41.0895 77.5802 41.6957V41.696ZM92.1298 39.3369C91.5624 41.5292 90.3825 42.6142 88.5529 42.6142H85.4373C83.6076 42.6142 82.4291 41.5292 81.8603 39.3369L79.5667 30.4653H82.0287L84.2388 38.9201C84.4921 39.9208 85.0183 40.4232 85.7753 40.4232H88.2161C88.9943 40.4232 89.5419 39.9208 89.7951 38.9201L91.9827 30.4653H94.4447L92.1298 39.3369ZM108.594 36.645C107.857 37.292 107.037 37.6037 106.111 37.6037H101.481V35.4127H106.111C106.405 35.4127 106.68 35.3087 106.953 35.0996C107.226 34.8696 107.375 34.6196 107.375 34.3276V33.7437C107.375 33.0125 106.953 32.6364 106.111 32.6364H98.8511C98.0079 32.6364 97.5876 33.0125 97.5876 33.7437V39.3158C97.5876 39.6289 97.715 39.8799 97.988 40.089C98.2612 40.3179 98.5356 40.423 98.8511 40.423H109.479V42.5929H98.8511C97.9243 42.5929 97.1051 42.2798 96.3679 41.654C95.6321 41.0069 95.2728 40.235 95.2728 39.3157V33.7437C95.2728 32.7613 95.6321 31.9894 96.3268 31.3844C97.0202 30.7795 97.862 30.4652 98.8511 30.4652H106.111C107.1 30.4652 107.942 30.7794 108.637 31.3634C109.33 31.9683 109.689 32.7613 109.689 33.7437V34.3276C109.689 35.2245 109.33 35.9965 108.594 36.6449V36.645ZM34.5714 36.5233C34.5714 37.3229 33.9177 37.9712 33.1117 37.9712C32.3056 37.9712 31.6506 37.3229 31.6506 36.5233C31.6506 35.7237 32.3056 35.0741 33.1117 35.0741C33.9178 35.0741 34.5714 35.7237 34.5714 36.5233ZM34.5714 31.9C34.5714 32.6996 33.9177 33.3479 33.1117 33.3479C32.3056 33.3479 31.6506 32.6995 31.6506 31.9C31.6506 31.099 32.3056 30.452 33.1117 30.452C33.9178 30.452 34.5714 31.0991 34.5714 31.9ZM39.4255 41.1461C39.4255 41.9458 38.7719 42.5954 37.9645 42.5954C37.1597 42.5954 36.5061 41.9457 36.5061 41.1461C36.5061 40.3466 37.1597 39.6982 37.9645 39.6982C38.7719 39.6982 39.4255 40.3466 39.4255 41.1461Z" fill="#1D2329"/>
<path d="M39.4255 36.5233C39.4255 37.323 38.7719 37.9713 37.9645 37.9713C37.1597 37.9713 36.5061 37.3229 36.5061 36.5234C36.5061 35.7237 37.1597 35.0741 37.9645 35.0741C38.7719 35.0741 39.4255 35.7237 39.4255 36.5233Z" fill="#3875E1"/>
<path d="M51.7175 39.3161L51.6658 39.5263C51.0797 41.5582 49.925 42.5642 48.1657 42.5642H46.5615C44.7372 42.5642 43.5652 41.4832 42.999 39.3014L40.7134 30.4653H43.1661L45.3669 38.8846C45.6188 39.884 46.1425 40.3824 46.8968 40.3824H47.8302C48.6058 40.3824 49.1507 39.8893 49.4026 38.8911C49.4026 38.8911 49.9741 37.142 51.7175 37.121C51.7175 37.121 53.429 36.9566 54.0164 38.8201L54.0401 38.8831" fill="#1D2329"/>
<path d="M54.0405 38.8827C54.2752 39.8494 54.8625 40.382 55.6169 40.382H56.5502C57.3258 40.382 57.8694 39.8836 58.1226 38.884L60.3022 30.4661H62.7535L60.448 39.3009C59.8819 41.484 58.7086 42.565 56.8856 42.565H55.2814C53.4584 42.565 52.2758 41.4761 51.7097 39.2931L54.0405 38.8827ZM26.8295 33.7414C26.8295 33.448 26.7049 33.1969 26.4344 32.9681C26.1626 32.7366 25.8921 32.6315 25.5793 32.6315H16.5784V40.4392H25.5792C26.4131 40.4392 26.8294 40.0843 26.8294 39.3503L26.8295 33.7414ZM28.1009 41.7161C27.4128 42.3238 26.5577 42.6367 25.5793 42.6367H14.3074V30.455H25.5793C26.4967 30.455 27.3081 30.7692 28.0373 31.4176C28.7664 32.0672 29.1204 32.8419 29.1204 33.7414V39.3503C29.1204 40.3142 28.7877 41.1086 28.1009 41.7161ZM14.4214 45.872H17.9931V46.4164H16.5042V50.1145H15.8864V46.4164H14.4214L14.4214 45.872ZM18.4723 45.872H19.0279V47.6789C19.2612 47.396 19.5515 47.2554 19.8976 47.2554C20.0858 47.2554 20.2542 47.3013 20.404 47.3948C20.5525 47.488 20.6639 47.617 20.7368 47.7828C20.8097 47.9472 20.8455 48.1918 20.8455 48.5166V50.1145H20.29V48.3799C20.29 48.1749 20.2383 48.0105 20.1375 47.8854C20.0354 47.7605 19.9015 47.6975 19.7358 47.6975C19.6125 47.6975 19.4971 47.7273 19.3884 47.7922C19.2797 47.8552 19.1591 47.9592 19.0278 48.1053V50.1148H18.4723L18.4723 45.872ZM22.0283 48.428H23.4455C23.4324 48.2069 23.3647 48.0361 23.2466 47.9164C23.1286 47.7967 22.9696 47.7364 22.7694 47.7364C22.5692 47.7364 22.4048 47.7967 22.2775 47.9164C22.1502 48.0361 22.0667 48.2072 22.0282 48.428H22.0283ZM23.9944 48.762H22.0123C22.027 49.0304 22.1171 49.2433 22.2841 49.4024C22.4498 49.5601 22.6659 49.6406 22.9298 49.6406C23.297 49.6406 23.6364 49.5262 23.9466 49.2988V49.838C23.7756 49.951 23.6059 50.0315 23.4376 50.0799C23.2692 50.1284 23.0703 50.1523 22.8449 50.1523C22.5333 50.1523 22.2828 50.0893 22.0906 49.9614C21.8983 49.8324 21.7446 49.6617 21.6292 49.4446C21.5138 49.2287 21.4568 48.979 21.4568 48.6949C21.4568 48.2688 21.5775 47.9217 21.8201 47.6547C22.064 47.3878 22.3783 47.2549 22.7667 47.2549C23.1406 47.2549 23.4375 47.385 23.6603 47.6455C23.883 47.9061 23.9944 48.2544 23.9944 48.6923V48.762ZM28.5224 46.3847C28.0425 46.3847 27.646 46.5387 27.3318 46.8463C27.0189 47.1538 26.8625 47.542 26.8625 48.0102C26.8625 48.4652 27.0202 48.8439 27.3358 49.1478C27.65 49.4501 28.0464 49.6014 28.5224 49.6014C28.9917 49.6014 29.3881 49.4464 29.7089 49.1359C30.0311 48.8269 30.1915 48.4455 30.1915 47.9917C30.1915 47.5275 30.0337 47.1435 29.7182 46.8397C29.4027 46.5359 29.0036 46.3847 28.5224 46.3847ZM30.7245 50.3773L30.1106 50.9757C29.9184 50.9683 29.7182 50.9325 29.51 50.8743C29.3018 50.8166 29.0898 50.7364 28.875 50.635C28.6602 50.5336 28.3738 50.3588 28.0159 50.1142C27.4975 50.021 27.0692 49.7761 26.7325 49.3791C26.3957 48.9819 26.2287 48.5243 26.2287 48.0061C26.2287 47.3723 26.4448 46.8475 26.8783 46.4319C27.3119 46.0177 27.8607 45.8099 28.525 45.8099C29.1852 45.8099 29.7328 46.0164 30.1703 46.428C30.6078 46.8396 30.8252 47.3578 30.8252 47.9811C30.8252 48.5059 30.6608 48.9661 30.3294 49.3633C29.9992 49.7605 29.571 50.0103 29.0473 50.1142L29.2091 50.1746C29.7116 50.3666 30.0748 50.4624 30.2962 50.4624C30.4182 50.4624 30.5614 50.4363 30.7245 50.377V50.3773ZM33.3277 50.1138V49.7559C33.2084 49.8834 33.0731 49.9833 32.9193 50.0545C32.7669 50.1243 32.6144 50.1597 32.462 50.1597C32.283 50.1597 32.1186 50.1164 31.9674 50.0281C31.8176 49.9401 31.7036 49.8204 31.6254 49.6691C31.5485 49.5192 31.51 49.268 31.51 48.9182V47.3164H32.0669V48.9116C32.0669 49.2061 32.1093 49.4114 32.1955 49.5271C32.2803 49.6442 32.4301 49.7019 32.6449 49.7019C32.9127 49.7019 33.1407 49.573 33.3277 49.3153V47.3163H33.8832V50.1136L33.3277 50.1138ZM35.9307 49.5562V48.7238L35.5582 48.8673C35.3686 48.9422 35.2347 49.0172 35.1552 49.0936C35.077 49.17 35.0385 49.2647 35.0385 49.3791C35.0385 49.4947 35.0757 49.5894 35.1499 49.6632C35.2241 49.7355 35.3196 49.7724 35.4389 49.7724C35.6152 49.7724 35.7796 49.7001 35.9308 49.5566L35.9307 49.5562ZM36.4796 48.4256V49.6144C36.4796 49.7091 36.5116 49.7564 36.5778 49.7564C36.6454 49.7564 36.7501 49.708 36.8946 49.6092V49.9484C36.7687 50.0274 36.6666 50.0811 36.591 50.1102C36.5141 50.14 36.4345 50.1534 36.351 50.1534C36.1137 50.1534 35.9732 50.0614 35.9308 49.8787C35.6934 50.0614 35.4402 50.1534 35.1711 50.1534C34.9736 50.1534 34.8105 50.089 34.6792 49.96C34.548 49.831 34.4817 49.6692 34.4817 49.4747C34.4817 49.2984 34.5453 49.1407 34.6726 49.0013C34.8012 48.8634 34.9815 48.7526 35.2175 48.6714L35.9308 48.4279V48.2781C35.9308 47.9374 35.761 47.7678 35.423 47.7678C35.1194 47.7678 34.8238 47.9229 34.536 48.2334V47.6324C34.7521 47.3811 35.0637 47.2549 35.4694 47.2549C35.773 47.2549 36.017 47.334 36.2012 47.4917C36.2622 47.5431 36.3166 47.6098 36.3656 47.6941C36.4147 47.7783 36.4465 47.8626 36.4584 47.9465C36.4716 48.0307 36.4795 48.1899 36.4795 48.4251L36.4796 48.4256ZM37.9294 47.317V47.6589C38.1786 47.3893 38.461 47.2551 38.7779 47.2551C38.9529 47.2551 39.1173 47.2999 39.2684 47.3904C39.4196 47.481 39.5335 47.6048 39.6131 47.7625C39.6913 47.9191 39.7311 48.1689 39.7311 48.5108V50.1139H39.1743V48.5134C39.1743 48.2253 39.1306 48.0203 39.043 47.898C38.9542 47.7742 38.807 47.7127 38.6015 47.7127C38.3377 47.7127 38.1136 47.8428 37.9293 48.1019V50.114H37.358V47.3168L37.9294 47.317ZM40.0986 47.7593L41.1486 46.7349V47.3174H42.0409V47.8145H41.1486V49.1835C41.1486 49.503 41.2812 49.6635 41.549 49.6635C41.7492 49.6635 41.96 49.599 42.1828 49.4689V49.9818C41.968 50.1015 41.7346 50.1608 41.4814 50.1608C41.2269 50.1608 41.0147 50.0873 40.8464 49.9386C40.795 49.8954 40.7503 49.8449 40.7138 49.7887C40.6792 49.7321 40.6502 49.6597 40.6276 49.5691C40.6039 49.4797 40.5919 49.3075 40.5919 49.055V47.8148H40.0987L40.0986 47.7593ZM44.3964 50.1138V49.7559C44.2771 49.8834 44.1419 49.9833 43.9881 50.0545C43.8356 50.1243 43.6832 50.1597 43.5307 50.1597C43.3517 50.1597 43.1873 50.1164 43.0362 50.0281C42.885 49.9401 42.771 49.8204 42.6941 49.6691C42.6172 49.5192 42.5788 49.268 42.5788 48.9182V47.3164H43.1356V48.9116C43.1356 49.2061 43.178 49.4114 43.2642 49.5271C43.3491 49.6442 43.4989 49.7019 43.7136 49.7019C43.9815 49.7019 44.2095 49.573 44.3964 49.3153V47.3163H44.9519V50.1136L44.3964 50.1138ZM48.0282 48.0841V50.1133H47.4647V48.5496C47.4647 48.238 47.4223 48.021 47.3388 47.8974C47.2553 47.7751 47.1094 47.7132 46.9013 47.7132C46.7859 47.7132 46.6785 47.7393 46.5818 47.7948C46.485 47.85 46.3749 47.9462 46.2503 48.0841V50.1133H45.6948V47.3175H46.2503V47.6858C46.534 47.3991 46.8125 47.2544 47.0842 47.2544C47.4409 47.2544 47.718 47.4266 47.9142 47.7686C48.2111 47.4267 48.5214 47.2544 48.8449 47.2544C49.118 47.2544 49.3421 47.3543 49.5184 47.553C49.6947 47.7517 49.7822 48.0553 49.7822 48.463V50.1135H49.2267V48.4512C49.2267 48.2186 49.179 48.0396 49.0835 47.9146C48.9881 47.7909 48.8502 47.7293 48.6712 47.7293C48.4418 47.7293 48.2271 47.8479 48.0282 48.0842V48.0841ZM56.0651 49.1272V49.7953C55.6157 50.0387 55.0973 50.161 54.5086 50.161C54.0313 50.161 53.6256 50.0648 53.2929 49.8743C52.9601 49.6835 52.6963 49.4219 52.5027 49.0879C52.3092 48.7524 52.2111 48.3909 52.2111 48.0016C52.2111 47.3836 52.4338 46.8641 52.8779 46.4419C53.3221 46.0211 53.8696 45.8094 54.5206 45.8094C54.97 45.8094 55.4685 45.9264 56.0187 46.159V46.8126C55.5176 46.5275 55.0297 46.3852 54.551 46.3852C54.0619 46.3852 53.6548 46.5377 53.3313 46.8455C53.0078 47.1531 52.8461 47.5386 52.8461 48.0002C52.8461 48.4671 53.0052 48.8511 53.3234 49.1509C53.6429 49.4506 54.0499 49.6006 54.5457 49.6006C55.0641 49.6006 55.5706 49.443 56.0651 49.1272L56.0651 49.1272ZM58.0196 47.8065C57.7531 47.8065 57.5357 47.8933 57.3647 48.0682C57.1936 48.2419 57.1087 48.4627 57.1087 48.7323C57.1087 48.9992 57.1963 49.2176 57.3713 49.3859C57.5449 49.5555 57.7703 49.6398 58.0435 49.6398C58.3166 49.6398 58.5393 49.5544 58.713 49.3833C58.8866 49.2122 58.9728 48.9941 58.9728 48.7258C58.9728 48.4615 58.8826 48.2418 58.7023 48.0682C58.5207 47.8934 58.294 47.8065 58.0196 47.8065L58.0196 47.8065ZM58.0489 47.3094C58.4758 47.3094 58.8311 47.4462 59.1135 47.721C59.3959 47.9958 59.5364 48.3405 59.5364 48.756C59.5364 49.1598 59.3932 49.4938 59.1068 49.7608C58.8205 50.0277 58.4599 50.1605 58.0237 50.1605C57.6034 50.1605 57.2521 50.0252 56.9697 49.7542C56.6859 49.4847 56.5454 49.1466 56.5454 48.7415C56.5454 48.3312 56.6873 47.9906 56.9736 47.7184C57.2587 47.4463 57.618 47.3094 58.0488 47.3094L58.0489 47.3094ZM62.463 48.0841V50.1133H61.8995V48.5496C61.8995 48.238 61.8571 48.021 61.7736 47.8974C61.6901 47.7751 61.5442 47.7132 61.3361 47.7132C61.2207 47.7132 61.1133 47.7393 61.0166 47.7948C60.9198 47.85 60.8097 47.9462 60.6851 48.0841V50.1133H60.1296V47.3175H60.6851V47.6858C60.9688 47.3991 61.2472 47.2544 61.519 47.2544C61.8757 47.2544 62.1528 47.4266 62.349 47.7686C62.6459 47.4267 62.9562 47.2544 63.2797 47.2544C63.5528 47.2544 63.7769 47.3543 63.9532 47.553C64.1295 47.7517 64.217 48.0553 64.217 48.463V50.1135H63.6615V48.4512C63.6615 48.2186 63.6138 48.0396 63.5183 47.9146C63.4229 47.7909 63.285 47.7293 63.106 47.7293C62.8767 47.7293 62.6619 47.8479 62.463 48.0842L62.463 48.0841ZM65.9445 47.8376H65.5507V49.5524C65.7218 49.6419 65.9007 49.6866 66.0877 49.6866C66.3489 49.6866 66.561 49.5971 66.7281 49.4171C66.8938 49.237 66.976 49.0041 66.976 48.7214C66.976 48.5387 66.9375 48.3781 66.858 48.2388C66.7798 48.0993 66.6737 47.9968 66.5384 47.9338C66.4032 47.8693 66.2043 47.8376 65.9445 47.8376V47.8376ZM64.9793 51.5436V47.3169H65.9551C66.4549 47.3169 66.8434 47.4406 67.1218 47.6878C67.4002 47.9349 67.5407 48.2796 67.5407 48.7241C67.5407 49.1436 67.4095 49.4868 67.147 49.7564C66.8858 50.026 66.5517 50.1602 66.146 50.1602C65.967 50.1602 65.7682 50.1207 65.5507 50.042V51.5439L64.9793 51.5436ZM69.9383 50.1138V49.7559C69.819 49.8834 69.6838 49.9833 69.53 50.0545C69.3775 50.1243 69.225 50.1597 69.0726 50.1597C68.8936 50.1597 68.7292 50.1164 68.578 50.0281C68.4283 49.9401 68.3142 49.8204 68.2373 49.6691C68.1605 49.5192 68.1207 49.268 68.1207 48.9182V47.3164H68.6775V48.9116C68.6775 49.2061 68.72 49.4114 68.8061 49.5271C68.891 49.6442 69.0408 49.7019 69.2556 49.7019C69.5233 49.7019 69.7514 49.573 69.9383 49.3153V47.3163H70.4939V50.1136L69.9383 50.1138ZM70.8914 47.7593L71.9414 46.7349V47.3174H72.8337V47.8145H71.9414V49.1835C71.9414 49.503 72.074 49.6635 72.3418 49.6635C72.542 49.6635 72.7528 49.599 72.9756 49.4689V49.9818C72.7608 50.1015 72.5275 50.1608 72.2755 50.1608C72.0196 50.1608 71.8075 50.0873 71.6392 49.9386C71.5878 49.8954 71.5431 49.8449 71.5066 49.7887C71.472 49.7321 71.443 49.6597 71.4204 49.5691C71.3967 49.4797 71.3847 49.3075 71.3847 49.055V47.8148H70.8915L70.8914 47.7593ZM73.42 47.3174H73.9755V50.1146H73.42V47.3174ZM73.6984 46.1443C73.7899 46.1443 73.8681 46.1742 73.933 46.2375C73.9993 46.3005 74.0311 46.377 74.0311 46.469C74.0311 46.557 73.9992 46.6346 73.933 46.699C73.868 46.7635 73.7899 46.7963 73.6984 46.7963C73.6122 46.7963 73.5366 46.7628 73.4717 46.6976C73.4054 46.6319 73.3735 46.5555 73.3735 46.4687C73.3735 46.3833 73.4055 46.3084 73.4716 46.2424C73.5366 46.1768 73.6122 46.144 73.6984 46.144V46.1443ZM75.3299 47.317V47.6589C75.5791 47.3893 75.8615 47.2551 76.1784 47.2551C76.3534 47.2551 76.5178 47.2999 76.6689 47.3904C76.8201 47.481 76.9341 47.6048 77.0136 47.7625C77.0918 47.9191 77.1316 48.1689 77.1316 48.5108V50.1139H76.5748V48.5134C76.5748 48.2253 76.5311 48.0203 76.4436 47.898C76.3561 47.7742 76.2075 47.7127 76.002 47.7127C75.7382 47.7127 75.5142 47.8428 75.3299 48.1019V50.114H74.7585V47.3168L75.3299 47.317ZM78.7783 47.7986C78.6271 47.7986 78.4985 47.85 78.3912 47.951C78.2851 48.0524 78.2321 48.1747 78.2321 48.3167C78.2321 48.4614 78.2838 48.5799 78.3885 48.6746C78.4932 48.7693 78.6245 48.8166 78.7849 48.8166C78.9414 48.8166 79.0726 48.7682 79.1787 48.672C79.2834 48.5747 79.3365 48.455 79.3365 48.3104C79.3365 48.1643 79.2834 48.042 79.1774 47.9447C79.0713 47.8474 78.9374 47.7986 78.7783 47.7986H78.7783ZM78.6444 50.2486C78.4562 50.2486 78.3037 50.2881 78.1844 50.3668C78.065 50.4458 78.0054 50.5468 78.0054 50.6706C78.0054 50.9572 78.2666 51.1006 78.7876 51.1006C79.0342 51.1006 79.2251 51.0633 79.3604 50.9928C79.4956 50.9205 79.5632 50.8191 79.5632 50.6875C79.5632 50.5586 79.4783 50.4534 79.3073 50.3707C79.1363 50.289 78.9149 50.2484 78.6444 50.2484V50.2486ZM77.7309 48.285C77.7309 47.9864 77.841 47.751 78.0597 47.5774C78.2798 47.4037 78.5794 47.3169 78.9586 47.3169H80.12V47.7522H79.5512C79.6613 47.8625 79.7382 47.9639 79.7819 48.056C79.8244 48.1466 79.8455 48.2521 79.8455 48.3691C79.8455 48.5153 79.8031 48.6584 79.7196 48.7991C79.6361 48.9397 79.5287 49.0478 79.3961 49.1227C79.2648 49.1976 79.0487 49.258 78.7478 49.3028C78.5344 49.3326 78.4283 49.4053 78.4283 49.5186C78.4283 49.5831 78.4667 49.6368 78.5463 49.6778C78.6245 49.7199 78.7663 49.7631 78.9732 49.8068C79.3179 49.8832 79.5406 49.941 79.64 49.9842C79.7395 50.0263 79.8283 50.0867 79.9092 50.1658C80.0445 50.3 80.1121 50.4681 80.1121 50.6708C80.1121 50.9366 79.9926 51.1481 79.7555 51.306C79.5181 51.4637 79.2 51.5427 78.8022 51.5427C78.4005 51.5427 78.0797 51.4637 77.8397 51.3045C77.6011 51.1453 77.4804 50.9325 77.4804 50.664C77.4804 50.2852 77.7151 50.0419 78.1844 49.9315C77.9975 49.8118 77.9033 49.6933 77.9033 49.5766C77.9033 49.4871 77.9431 49.4055 78.0253 49.3332C78.1049 49.2597 78.2149 49.2068 78.3515 49.1714C77.9378 48.9887 77.731 48.694 77.731 48.285L77.7309 48.285ZM86.0599 49.1272V49.7953C85.6105 50.0387 85.0921 50.161 84.5034 50.161C84.0261 50.161 83.6204 50.0648 83.2877 49.8743C82.9547 49.6835 82.6911 49.4219 82.4975 49.0879C82.3025 48.7524 82.207 48.3909 82.207 48.0016C82.207 47.3836 82.4284 46.8641 82.8726 46.4419C83.3167 46.0211 83.8642 45.8094 84.5152 45.8094C84.9647 45.8094 85.4631 45.9264 86.0121 46.159V46.8126C85.5122 46.5275 85.0243 46.3852 84.5457 46.3852C84.0565 46.3852 83.6495 46.5377 83.326 46.8455C83.0024 47.1531 82.8408 47.5386 82.8408 48.0002C82.8408 48.4671 82.9997 48.8511 83.3181 49.1509C83.6375 49.4506 84.0445 49.6006 84.5404 49.6006C85.0588 49.6006 85.5653 49.443 86.0597 49.1272L86.0599 49.1272ZM88.0141 47.8065C87.7477 47.8065 87.5302 47.8933 87.3592 48.0682C87.1882 48.2419 87.1033 48.4627 87.1033 48.7323C87.1033 48.9992 87.1908 49.2176 87.366 49.3859C87.5396 49.5555 87.7651 49.6398 88.0381 49.6398C88.3114 49.6398 88.534 49.5544 88.7077 49.3833C88.8813 49.2122 88.9673 48.9941 88.9673 48.7258C88.9673 48.4615 88.8772 48.2418 88.6968 48.0682C88.5152 47.8934 88.2884 47.8065 88.014 47.8065L88.0141 47.8065ZM88.044 47.3094C88.471 47.3094 88.8263 47.4462 89.1087 47.721C89.3909 47.9958 89.5316 48.3405 89.5316 48.756C89.5316 49.1598 89.3884 49.4938 89.102 49.7608C88.8157 50.0277 88.455 50.1605 88.0189 50.1605C87.5986 50.1605 87.2472 50.0252 86.9649 49.7542C86.6811 49.4847 86.5406 49.1466 86.5406 48.7415C86.5406 48.3312 86.6827 47.9906 86.9688 47.7184C87.2537 47.4463 87.6132 47.3094 88.044 47.3094V47.3094ZM92.4576 48.0841V50.1133H91.8942V48.5496C91.8942 48.238 91.8517 48.021 91.7683 47.8974C91.6849 47.7751 91.539 47.7132 91.3308 47.7132C91.2154 47.7132 91.1079 47.7393 91.0113 47.7948C90.9144 47.85 90.8046 47.9462 90.6799 48.0841V50.1133H90.123V47.3175H90.6799V47.6858C90.9636 47.3991 91.242 47.2544 91.5138 47.2544C91.8704 47.2544 92.1475 47.4266 92.3437 47.7686C92.6406 47.4267 92.9509 47.2544 93.2757 47.2544C93.5474 47.2544 93.7716 47.3543 93.9479 47.553C94.1242 47.7517 94.2117 48.0553 94.2117 48.463V50.1135H93.6563V48.4512C93.6563 48.2186 93.6085 48.0396 93.5131 47.9146C93.4176 47.7909 93.2797 47.7293 93.1007 47.7293C92.8715 47.7293 92.6566 47.8479 92.4577 48.0842L92.4576 48.0841ZM95.9392 47.8376H95.5454V49.5524C95.7164 49.6419 95.8953 49.6866 96.0823 49.6866C96.3435 49.6866 96.5556 49.5971 96.7227 49.4171C96.8885 49.237 96.9708 49.0041 96.9708 48.7214C96.9708 48.5387 96.9324 48.3781 96.8528 48.2388C96.7746 48.0993 96.6686 47.9968 96.5333 47.9338C96.398 47.8693 96.1992 47.8376 95.9393 47.8376L95.9392 47.8376ZM94.9742 51.5436V47.3169H95.9499C96.4498 47.3169 96.8382 47.4406 97.118 47.6878C97.3949 47.9349 97.5343 48.2796 97.5343 48.7241C97.5343 49.1436 97.4042 49.4868 97.1418 49.7564C96.8806 50.026 96.5465 50.1602 96.1409 50.1602C95.962 50.1602 95.763 50.1207 95.5456 50.042V51.5439L94.9742 51.5436ZM99.3962 49.5562V48.7238L99.0237 48.8673C98.8328 48.9422 98.699 49.0172 98.6207 49.0936C98.5425 49.17 98.5027 49.2647 98.5027 49.3791C98.5027 49.4947 98.5403 49.5894 98.6154 49.6632C98.6898 49.7355 98.7853 49.7724 98.9044 49.7724C99.0807 49.7724 99.2453 49.7001 99.3963 49.5566L99.3962 49.5562ZM99.9439 48.4256V49.6144C99.9439 49.7091 99.9777 49.7564 100.043 49.7564C100.111 49.7564 100.216 49.708 100.36 49.6092V49.9484C100.233 50.0274 100.132 50.0811 100.057 50.1102C99.9796 50.14 99.9003 50.1534 99.8165 50.1534C99.5793 50.1534 99.4386 50.0614 99.3962 49.8787C99.1576 50.0614 98.9056 50.1534 98.6365 50.1534C98.4388 50.1534 98.2757 50.089 98.1447 49.96C98.012 49.831 97.947 49.6692 97.947 49.4747C97.947 49.2984 98.0105 49.1407 98.1379 49.0013C98.2664 48.8634 98.4468 48.7526 98.6828 48.6714L99.3961 48.4279V48.2781C99.3961 47.9374 99.2263 47.7678 98.8883 47.7678C98.5847 47.7678 98.289 47.9229 98.0014 48.2334V47.6324C98.2175 47.3811 98.529 47.2549 98.9347 47.2549C99.2383 47.2549 99.4823 47.334 99.6666 47.4917C99.7274 47.5431 99.7819 47.6098 99.8308 47.6941C99.8796 47.7783 99.9105 47.8626 99.9236 47.9465C99.9387 48.0307 99.9424 48.1899 99.9424 48.4251L99.9439 48.4256ZM101.395 47.317V47.6589C101.644 47.3893 101.926 47.2551 102.243 47.2551C102.418 47.2551 102.582 47.2999 102.734 47.3904C102.885 47.481 102.999 47.6048 103.078 47.7625C103.156 47.9191 103.196 48.1689 103.196 48.5108V50.1139H102.639V48.5134C102.639 48.2253 102.596 48.0203 102.508 47.898C102.421 47.7742 102.272 47.7127 102.067 47.7127C101.803 47.7127 101.579 47.8428 101.395 48.1019V50.114H100.823V47.3168L101.395 47.317ZM105.574 47.317H106.196L104.21 51.5437H103.588L104.538 49.5237L103.455 47.317H104.09L104.843 48.8912L105.574 47.317ZM108.369 48.9796H108.126V47.3948H108.517L108.92 48.6613L109.31 47.3948H109.693V48.9796H109.449V47.65L109.041 48.9796H108.801L108.369 47.6276L108.369 48.9796ZM107.422 48.9796H107.156V47.6197H106.638V47.395H107.946V47.6197H107.422L107.422 48.9796Z" fill="#1D2329"/>
</svg>
