<svg width="76" height="50" viewBox="0 0 76 50" fill="none" xmlns="http://www.w3.org/2000/svg">
<path d="M22.4957 21.2463V33.367H18.615V18.1319L26.6268 18.1398C30.0297 18.1398 31.1889 20.5257 31.1889 22.6928V33.367H27.3152V22.7128C27.3152 21.805 26.8426 21.2464 25.7025 21.2464H22.4957V21.2463ZM48.8841 21.0643C47.5576 21.0643 46.5311 21.7423 46.1023 22.6626C45.8482 23.2152 45.7609 23.6387 45.731 24.3153H51.7013C51.6247 22.6626 50.8709 21.0643 48.8841 21.0643ZM45.731 26.9412C45.731 28.9147 46.9649 30.3673 49.168 30.3673C50.8821 30.3673 51.734 29.895 52.7251 28.9147L55.122 31.1901C53.5872 32.6965 51.9769 33.6113 49.1395 33.6113C45.4246 33.6113 41.8694 31.5973 41.8694 25.7279C41.8694 20.7128 44.9734 17.8737 49.0522 17.8737C53.1865 17.8737 55.575 21.1976 55.575 25.5514V26.9412H45.731ZM38.5935 33.348C35.4321 33.348 34.0907 31.1599 34.0907 28.9988V13.981H37.9654V18.1319H40.8863V21.2463H37.9654V28.7573C37.9654 29.6424 38.3857 30.1337 39.31 30.1337H40.8863V33.348H38.5935ZM15.1621 16.0265H11.2548V12.3363H15.1621V16.0265ZM15.1719 33.5272C12.2459 33.2477 11.2506 31.4831 11.2506 29.4469L11.2548 18.1319H15.172V33.5272H15.1719ZM61.742 33.2017C58.822 32.9217 57.8314 31.1599 57.8314 29.1265V11.8111H61.742V33.2017ZM75.413 14.3135C71.869 -2.86541 38.3287 -3.95293 16.7099 9.13219V10.5768C38.3068 -0.458177 68.9364 -0.393169 71.727 15.4293C72.6607 20.6613 69.6954 26.1161 64.3995 29.2514V33.3535C70.7738 31.035 77.3111 23.5166 75.413 14.3135ZM36.1149 44.3699C21.1945 45.7412 5.64643 43.588 3.47091 31.9962C2.40604 26.2818 5.02432 20.2243 8.49777 16.4616V14.4496C2.2449 19.9011 -1.14868 26.8028 0.804988 34.9579C3.29857 45.4152 16.6427 51.3414 37.0103 49.3734C45.0687 48.5914 55.6161 46.0152 62.9488 42.0138V36.3291C56.2952 40.2683 45.285 43.5257 36.1149 44.3699Z" fill="#0071C5"/>
<path d="M66.2622 12.9609C66.2622 12.7724 66.1515 12.7125 65.8984 12.7125H65.6541V13.246C65.6896 13.246 65.8671 13.2525 65.8984 13.2525C66.1515 13.2525 66.2622 13.1685 66.2622 12.992V12.9609V12.9609ZM66.6433 14.2839H66.3538C66.3276 14.2839 66.3047 14.2676 66.2935 14.2458L65.8984 13.5799C65.8914 13.5665 65.8573 13.5502 65.8437 13.5502H65.6663V14.2105C65.6663 14.2458 65.642 14.2839 65.5953 14.2839H65.3333C65.3006 14.2839 65.2679 14.2458 65.2679 14.2105V12.5402C65.2679 12.4436 65.3057 12.4032 65.3879 12.3907C65.4804 12.3786 65.7317 12.3703 65.8671 12.3703C66.3482 12.3703 66.6391 12.5114 66.6391 12.9609V12.992C66.6391 13.2702 66.4999 13.4169 66.2842 13.4889L66.6938 14.1775C66.6964 14.1915 66.7059 14.2105 66.7059 14.2267C66.7059 14.2537 66.6895 14.2839 66.6433 14.2839L66.6433 14.2839ZM65.9558 12.0689C65.2431 12.0689 64.6668 12.654 64.6668 13.3584C64.6668 14.0638 65.2431 14.6396 65.9558 14.6396C66.6648 14.6396 67.2467 14.0638 67.2467 13.3584C67.2467 12.654 66.6648 12.0689 65.9558 12.0689ZM65.9558 14.9052C65.0899 14.9052 64.3992 14.2105 64.3992 13.3584C64.3992 12.5077 65.0899 11.8112 65.9558 11.8112C66.8124 11.8112 67.5162 12.5077 67.5162 13.3584C67.5162 14.2105 66.8124 14.9052 65.9558 14.9052Z" fill="#0071C5"/>
</svg>
