<svg width="144" height="20" viewBox="0 0 144 20" fill="none" xmlns="http://www.w3.org/2000/svg">
<path d="M1.91793 7.0545H0.781315C0.390605 7.0545 0.17749 6.90905 0.17749 6.50905C0.17749 6.14541 0.390605 5.96359 0.781315 5.96359H1.91793V4.94541C1.91793 3.1636 2.80591 2.2545 4.54634 2.2545C5.22121 2.2545 5.82503 2.39996 6.3223 2.6545C6.92612 3.0545 7.21028 3.59996 7.21028 4.2545C7.21028 4.72723 7.0682 4.90905 6.71301 4.90905C6.46438 4.90905 6.25126 4.76359 6.18022 4.50904C6.03815 4.03632 5.89607 3.74541 5.78951 3.63632C5.5764 3.38177 5.15017 3.23632 4.54634 3.23632C3.44525 3.23632 2.9835 3.78177 2.9835 4.83632V5.8545H5.04361C5.50536 5.8545 5.71847 5.99996 5.71847 6.39996C5.71847 6.76359 5.46984 6.94541 5.04361 6.94541H2.9835V13.6727C2.9835 14.0727 2.84142 14.2909 2.48623 14.2909C2.13104 14.2909 1.98897 14.0727 1.98897 13.6727L1.91793 7.0545ZM11.1174 13.2V7.09086H9.59006C9.16383 7.09086 8.95071 6.94541 8.95071 6.54541C8.95071 6.18177 9.16383 5.99996 9.59006 5.99996H11.6146C11.9698 5.99996 12.1474 6.29086 12.1474 6.90905C12.7868 6.21814 13.4261 5.8545 14.172 5.8545C14.7759 5.8545 15.2021 5.99996 15.5573 6.39996C15.9125 6.79996 16.0545 7.27268 16.0545 7.8545C16.0545 8.2545 15.9125 8.47268 15.5573 8.47268C15.3442 8.47268 15.2021 8.32723 15.0955 8.07268C14.9534 7.56359 14.8469 7.30905 14.8469 7.27268C14.7048 7.01814 14.3851 6.87268 14.0655 6.87268C13.6748 6.87268 13.284 7.01814 12.9644 7.34541C12.7513 7.49086 12.4671 7.81814 12.1119 8.29086V13.2H14.0299C14.4917 13.2 14.6693 13.3454 14.6693 13.709C14.6693 14.0727 14.4562 14.2545 14.0299 14.2545H9.59006C9.12831 14.2545 8.95071 14.109 8.95071 13.709C8.95071 13.3454 9.16383 13.1636 9.59006 13.1636H11.1529L11.1174 13.2ZM18.825 10.2909V11.4545C18.825 12.7272 19.6775 13.309 21.3824 13.309C22.0218 13.309 22.519 13.2727 22.9097 13.0909C23.1228 13.0545 23.4425 12.8363 23.9398 12.4727C24.2239 12.1818 24.4726 12.0363 24.5791 12.0363C24.8633 12.0363 25.0409 12.1818 25.0409 12.4727C25.0409 12.7636 24.8278 13.1272 24.4015 13.4909C23.7267 14.0363 22.6611 14.3636 21.3469 14.3636C18.9671 14.3636 17.795 13.4181 17.795 11.4181V8.54541C17.795 7.89086 18.0436 7.27268 18.5409 6.83632C19.1802 6.18177 20.1748 5.89086 21.4534 5.89086C23.7622 5.89086 24.8988 7.09087 24.8988 9.49087C24.8988 10.109 24.6502 10.3636 24.2595 10.3636L18.825 10.2909ZM18.825 9.23632H23.9043C23.9043 7.67268 23.0518 6.87268 21.3469 6.87268C20.7075 6.87268 20.1748 7.01814 19.6065 7.34541C19.1092 7.74541 18.825 8.14541 18.825 8.6545V9.23632ZM27.7403 10.2909V11.4545C27.7403 12.7272 28.5928 13.309 30.2977 13.309C30.9371 13.309 31.4343 13.2727 31.825 13.0909C32.0381 13.0545 32.3578 12.8363 32.8551 12.4727C33.1392 12.1818 33.3879 12.0363 33.4944 12.0363C33.7786 12.0363 33.9562 12.1818 33.9562 12.4727C33.9562 12.7636 33.7431 13.1272 33.3168 13.4909C32.642 14.0363 31.5764 14.3636 30.2622 14.3636C27.8824 14.3636 26.7103 13.4181 26.7103 11.4181V8.54541C26.7103 7.89086 26.9589 7.27268 27.4562 6.83632C28.0955 6.18177 29.0901 5.89086 30.3687 5.89086C32.6775 5.89086 33.8141 7.09087 33.8141 9.49087C33.8141 10.109 33.5655 10.3636 33.1748 10.3636L27.7403 10.2909ZM27.7403 9.23632H32.8196C32.8196 7.67268 31.9671 6.87268 30.2622 6.87268C29.6228 6.87268 29.0901 7.01814 28.5218 7.34541C27.989 7.74541 27.7403 8.14541 27.7403 8.6545V9.23632ZM35.6966 11.0181V6.47268C35.6966 4.03632 36.9398 2.87268 39.3906 2.87268C40.3851 2.87268 41.1666 3.12723 41.8059 3.52723C42.4808 4.07268 42.836 4.83632 42.836 5.81814C42.836 6.29086 42.6939 6.47268 42.3032 6.47268C42.0545 6.47268 41.8414 6.2545 41.7704 5.81814C41.7349 5.4545 41.5573 5.12723 41.3797 4.79996C41.0955 4.18177 40.3851 3.92723 39.3196 3.92723C38.4316 3.92723 37.7567 4.18177 37.3305 4.61814C36.9043 5.0545 36.7977 5.74541 36.7977 6.69086V10.4727C36.7977 11.4909 37.0108 12.1818 37.4015 12.5818C37.8633 13.0545 38.5026 13.3454 39.3906 13.3454C40.7759 13.3454 41.5573 12.8363 41.7704 11.8909C41.8769 11.4909 41.8769 11.3454 41.8769 11.2727C41.9835 11.0545 42.1256 10.9818 42.3387 10.9818C42.6939 10.9818 42.8715 11.2363 42.8715 11.6363C42.8715 12.5454 42.4808 13.2363 41.7704 13.8181C41.1666 14.2181 40.4207 14.4363 39.4616 14.4363C38.325 14.4363 37.4371 14.1818 36.7977 13.6363C36.0518 13.0181 35.6966 12.109 35.6966 11.0181ZM44.4698 11.6727V8.6545C44.4698 6.79996 45.642 5.89086 48.0218 5.89086C50.4015 5.89086 51.5737 6.79996 51.5737 8.6545V11.6727C51.5737 13.5272 50.4015 14.4363 48.0573 14.4363C45.6775 14.4 44.4698 13.4909 44.4698 11.6727ZM50.5436 11.6727V8.6545C50.5436 7.49086 49.6912 6.94541 47.9862 6.94541C46.3524 6.94541 45.4644 7.56359 45.4644 8.6545V11.6727C45.4644 12.8363 46.3168 13.3818 48.0218 13.3818C49.7622 13.3454 50.5436 12.7636 50.5436 11.6727ZM59.3879 13.3818C58.8906 13.7818 58.4999 14 58.1092 14.1454C57.7185 14.2909 57.2212 14.4 56.6884 14.4C55.7649 14.4 54.948 14.1818 54.3797 13.7818C53.7048 13.309 53.3496 12.6181 53.3496 11.6727V8.54541C53.3496 7.63632 53.7048 6.94541 54.3442 6.47268C54.8769 6.07268 55.6939 5.8545 56.5819 5.8545C57.1857 5.8545 57.683 5.89086 58.0737 6.07268C58.4644 6.21814 58.9261 6.47268 59.3524 6.87268V3.09086C59.3524 2.58177 59.4944 2.32723 59.8496 2.32723C60.2048 2.32723 60.3824 2.58177 60.3824 3.09086V13.8545C60.3824 14.2545 60.2403 14.4 59.8851 14.4C59.672 14.4 59.5299 14.2909 59.4944 14.0363C59.4234 13.8909 59.3879 13.6727 59.3879 13.3818ZM59.3168 12.1818V7.92723C58.8196 7.52723 58.4289 7.27268 58.0737 7.16359C57.6119 7.01814 57.1857 6.90905 56.6884 6.90905C56.0491 6.90905 55.5163 7.01814 55.1256 7.30905C54.6283 7.59996 54.3442 8.10905 54.3442 8.69086V11.6363C54.3442 12.2545 54.5928 12.6909 55.1256 13.0545C55.5873 13.309 56.0491 13.4545 56.7595 13.4545C57.2922 13.4545 57.7895 13.3454 58.1802 13.2C58.5354 12.8727 58.9261 12.5818 59.3168 12.1818ZM63.2595 10.2909V11.4545C63.2595 12.7272 64.1119 13.309 65.8168 13.309C66.4562 13.309 66.9534 13.2727 67.3442 13.0909C67.5573 13.0545 67.8769 12.8363 68.3742 12.4727C68.6584 12.1818 68.907 12.0363 69.0136 12.0363C69.2977 12.0363 69.4753 12.1818 69.4753 12.4727C69.4753 12.7636 69.2622 13.1272 68.836 13.4909C68.1611 14.0363 67.0955 14.3636 65.7813 14.3636C63.4015 14.3636 62.2294 13.4181 62.2294 11.4181V8.54541C62.2294 7.89086 62.478 7.27268 62.9753 6.83632C63.6147 6.18177 64.6092 5.89086 65.8879 5.89086C68.1966 5.89086 69.3332 7.09087 69.3332 9.49087C69.3332 10.109 69.0846 10.3636 68.6939 10.3636L63.2595 10.2909ZM63.2595 9.23632H68.3387C68.3387 7.67268 67.4862 6.87268 65.7813 6.87268C65.142 6.87268 64.6092 7.01814 64.0409 7.34541C63.5081 7.74541 63.2595 8.14541 63.2595 8.6545V9.23632ZM71.2157 11.0181V6.47268C71.2157 4.03632 72.4589 2.87268 74.9097 2.87268C75.9043 2.87268 76.6857 3.12723 77.325 3.52723C77.9999 4.07268 78.3551 4.83632 78.3551 5.81814C78.3551 6.29086 78.213 6.47268 77.8223 6.47268C77.5737 6.47268 77.3606 6.2545 77.2895 5.81814C77.254 5.4545 77.0764 5.12723 76.8988 4.79996C76.6146 4.18177 75.9043 3.92723 74.8387 3.92723C73.9507 3.92723 73.2759 4.18177 72.8496 4.61814C72.4589 5.09086 72.3168 5.74541 72.3168 6.69086V10.4727C72.3168 11.4909 72.53 12.1818 72.9207 12.5818C73.3469 13.0545 74.0218 13.3454 74.9097 13.3454C76.295 13.3454 77.0764 12.8363 77.2895 11.8909C77.3961 11.4909 77.3961 11.3454 77.3961 11.2727C77.5026 11.0545 77.6447 10.9818 77.8223 10.9818C78.1775 10.9818 78.3551 11.2363 78.3551 11.6363C78.3551 12.5454 77.9644 13.2363 77.254 13.8181C76.6502 14.2181 75.9043 14.4363 74.9453 14.4363C73.8086 14.4363 72.9207 14.1818 72.2813 13.6363C71.5709 13.0181 71.2157 12.109 71.2157 11.0181ZM85.7075 13.3818C85.2103 13.7818 84.8196 14.0363 84.5354 14.1454C84.1447 14.2909 83.683 14.4 83.1502 14.4C82.2977 14.4 81.5873 14.2545 81.019 13.8545C80.3797 13.3818 80.0955 12.8 80.0955 11.9272C80.0955 11.0545 80.4507 10.4 81.0901 9.89087C81.6228 9.4545 82.3687 9.23632 83.2567 9.23632C83.9316 9.23632 84.7485 9.38177 85.672 9.74541V8.43632C85.672 7.81814 85.3879 7.38177 84.8196 7.12723C84.4289 6.98177 83.9316 6.87268 83.3988 6.87268C82.0491 6.87268 81.3742 7.27268 81.2321 8.03632C81.1966 8.39996 81.1256 8.58177 81.1256 8.58177C81.019 8.72723 80.8769 8.83632 80.6638 8.83632C80.2731 8.83632 80.131 8.61814 80.131 8.21814C80.131 7.67268 80.3442 7.16359 80.7704 6.69086C81.2677 6.07268 82.1912 5.81814 83.5409 5.81814C84.5709 5.81814 85.3524 5.96359 85.8496 6.36359C86.4534 6.83632 86.7376 7.52723 86.7376 8.58177V12.3272C86.7376 12.7636 86.8442 13.0909 86.9862 13.2C86.9862 13.2 87.1994 13.309 87.4835 13.4545C87.6256 13.5636 87.7321 13.709 87.7321 13.9636C87.7321 14.2545 87.5901 14.4363 87.2704 14.4363C87.1638 14.4363 87.0218 14.4363 86.8086 14.3272C86.4179 14.1818 86.1693 14.0727 86.1338 14.0727C85.8851 13.8909 85.7786 13.6727 85.7075 13.3818ZM85.672 12.2909V10.7272C84.8906 10.4727 84.1092 10.3272 83.4343 10.3272C81.907 10.3272 81.1611 10.8363 81.1611 11.8545C81.1611 12.4 81.4097 12.8 81.836 13.0181C82.2267 13.2363 82.6884 13.309 83.2212 13.309C83.7185 13.309 84.1447 13.2 84.5354 13.0181C84.8196 12.9454 85.1748 12.6909 85.672 12.2909ZM89.6502 6.72723C89.8988 6.43632 90.1474 6.18177 90.2895 6.07268C90.5381 5.92723 90.7868 5.81814 91.1775 5.81814C91.7103 5.81814 92.2075 6.10905 92.6693 6.72723C92.9534 6.36359 93.2021 6.10905 93.4507 6.03632C93.6994 5.89086 94.0545 5.81814 94.4452 5.81814C95.6884 5.81814 96.2567 6.43632 96.2567 7.67268V13.6363C96.2567 14.1454 96.1146 14.4 95.7239 14.4C95.3687 14.4 95.2267 14.1454 95.2267 13.6363V8.03632C95.2267 7.27268 94.9425 6.87268 94.3387 6.87268C93.8769 6.87268 93.4507 7.16359 93.06 7.74541V13.6363C93.06 14.1454 92.9179 14.4 92.5627 14.4C92.2075 14.4 92.0655 14.1454 92.0655 13.6363V8.18177C92.0655 7.30905 91.7103 6.90905 91.0709 6.90905C90.6092 6.90905 90.2185 7.19996 89.8278 7.78177V13.709C89.8278 14.2181 89.6857 14.4727 89.295 14.4727C88.9398 14.4727 88.7977 14.2181 88.7977 13.709V6.43632C88.7977 6.07268 88.9398 5.89086 89.2595 5.89086C89.4015 5.89086 89.5436 5.99996 89.6502 6.18177C89.6146 6.32723 89.6502 6.58177 89.6502 6.72723ZM98.8851 6.72723C99.6666 6.10905 100.626 5.8545 101.656 5.8545C103.822 5.8545 104.852 6.79996 104.852 8.61814V11.6363C104.852 12.509 104.568 13.2 103.964 13.709C103.432 14.1818 102.686 14.3636 101.727 14.3636C100.626 14.3636 99.7021 14.0727 98.8496 13.4545V16.9454C98.8496 17.4909 98.7075 17.7454 98.3524 17.7454C97.9972 17.7454 97.8551 17.4909 97.8551 16.9454V6.6545C97.8551 6.10905 97.9972 5.8545 98.2813 5.8545C98.4234 5.8545 98.5655 5.96359 98.672 6.14541C98.7431 6.36359 98.7786 6.58177 98.8851 6.72723ZM98.8851 12.3272C99.631 12.9818 100.519 13.3454 101.549 13.3454C102.188 13.3454 102.721 13.2363 103.112 12.9454C103.609 12.6545 103.787 12.1818 103.787 11.6363V8.61814C103.787 7.96359 103.538 7.56359 103.005 7.23632C102.615 7.01814 102.082 6.94541 101.443 6.94541C100.839 6.94541 100.341 7.0545 100.022 7.19996C99.6666 7.34541 99.3469 7.67268 98.8496 8.14541V12.3272H98.8851ZM108.369 9.38177C108.369 7.0545 109.15 4.98177 110.677 3.23632C111.21 2.58177 111.708 2.21814 112.027 2.21814C112.134 2.21814 112.276 2.21814 112.311 2.32723C112.418 2.43632 112.453 2.47268 112.453 2.61814C112.453 2.76359 112.24 3.0545 111.85 3.49087C110.216 5.09087 109.434 7.09086 109.434 9.4545C109.434 12.0727 110.287 14.2545 111.956 15.8545C112.311 16.1454 112.453 16.4727 112.453 16.6545C112.453 16.7636 112.418 16.909 112.311 16.9454C112.205 17.0545 112.098 17.0909 112.027 17.0909C111.637 17.0909 111.104 16.6181 110.393 15.6727C109.008 14 108.369 11.9272 108.369 9.38177ZM129.822 9.99996C129.822 12.3272 129.041 14.4 127.514 16.1454C126.981 16.8 126.484 17.1636 126.164 17.1636C126.057 17.1636 125.915 17.1636 125.88 17.0545C125.773 16.9454 125.738 16.8363 125.738 16.7636C125.738 16.6181 125.951 16.2909 126.341 15.9636C127.975 14.3636 128.757 12.3636 128.757 9.99996C128.757 7.38177 127.904 5.19995 126.235 3.59995C125.88 3.30904 125.738 2.98177 125.738 2.79996C125.738 2.69086 125.773 2.54541 125.88 2.50904C125.986 2.39995 126.093 2.36359 126.164 2.36359C126.555 2.36359 127.087 2.83632 127.798 3.78177C129.147 5.41813 129.822 7.52723 129.822 9.99996ZM123.962 16.6545H114.158C113.874 16.6545 113.555 16.4 113.555 16.0363C113.555 15.6727 113.803 15.4181 114.158 15.4181H123.962C124.246 15.4181 124.565 15.6727 124.565 16.0363C124.53 16.4 124.352 16.6545 123.962 16.6545ZM117 3.49087C117 3.49087 117.852 4.10905 117.852 5.09086C117.852 6.90905 115.437 8.94541 115.437 10.8363C115.437 12.909 116.964 14.2181 118.385 14.6181C118.598 14.6545 118.669 14.4 118.421 14.3636C117.817 14.2181 117.142 13.4181 117.142 12.1454C117.142 10.9818 118.243 10.5454 118.669 9.96359C119.131 9.34541 119.024 8.6545 118.776 8.43632C118.527 8.21814 118.669 7.92723 119.167 8.29086C119.628 8.6545 120.055 9.23632 119.912 9.8545C119.699 10.6181 119.948 11.0545 120.374 11.1272C120.765 11.1636 121.227 10.9818 121.156 10.6181C121.12 10.2545 120.907 9.8545 121.014 9.8545C121.298 9.8545 121.902 10.5454 121.902 11.6727C121.902 12.8 121.014 13.6 120.729 13.8909C120.587 14.0363 120.765 14.2909 121.014 14.1818C121.12 14.1454 121.369 13.9636 121.511 13.8909C122.186 13.3818 123.322 12.3272 123.322 10.3636C123.322 8.29086 122.576 7.38177 121.795 6.61814C121.049 5.8545 120.871 6.07268 121.049 6.39996C121.688 7.56359 121.298 7.92723 120.836 7.92723C120.303 7.92723 120.232 6.61814 120.055 5.63632C119.557 3.41814 117.639 3.0545 117.284 3.0545C116.893 3.09086 116.538 3.27269 117 3.49087Z" fill="#006400"/>
</svg>
