<svg width="86" height="29" viewBox="0 0 86 29" fill="none" xmlns="http://www.w3.org/2000/svg">
<path d="M36.5974 14.872C36.5974 18.8973 33.4388 21.8635 29.5625 21.8635C25.6862 21.8635 22.5276 18.8973 22.5276 14.872C22.5276 10.8183 25.6862 7.88049 29.5625 7.88049C33.4388 7.88049 36.5974 10.8183 36.5974 14.872ZM33.5179 14.872C33.5179 12.3566 31.6872 10.6355 29.5625 10.6355C27.4378 10.6355 25.6071 12.3566 25.6071 14.872C25.6071 17.3622 27.4378 19.1085 29.5625 19.1085C31.6872 19.1085 33.5179 17.3591 33.5179 14.872Z" fill="#EA4335"/>
<path d="M51.774 14.872C51.774 18.8973 48.6153 21.8635 44.739 21.8635C40.8627 21.8635 37.7041 18.8973 37.7041 14.872C37.7041 10.8215 40.8627 7.88049 44.739 7.88049C48.6153 7.88049 51.774 10.8183 51.774 14.872ZM48.6944 14.872C48.6944 12.3566 46.8637 10.6355 44.739 10.6355C42.6143 10.6355 40.7837 12.3566 40.7837 14.872C40.7837 17.3622 42.6143 19.1085 44.739 19.1085C46.8637 19.1085 48.6944 17.3591 48.6944 14.872Z" fill="#FBBC05"/>
<path d="M66.3181 8.30288V20.8548C66.3181 26.0181 63.2638 28.1269 59.6531 28.1269C56.2542 28.1269 54.2085 25.8605 53.4371 24.007L56.1182 22.8943C56.5957 24.0322 57.7655 25.3751 59.6499 25.3751C61.9612 25.3751 63.3935 23.9534 63.3935 21.2772V20.2717H63.286C62.5967 21.1196 61.2688 21.8604 59.593 21.8604C56.0866 21.8604 52.8743 18.8154 52.8743 14.8972C52.8743 10.9507 56.0866 7.88049 59.593 7.88049C61.2656 7.88049 62.5935 8.62125 63.286 9.44397H63.3935V8.30604H66.3181V8.30288ZM63.6116 14.8972C63.6116 12.4354 61.9644 10.6355 59.8681 10.6355C57.7434 10.6355 55.9633 12.4354 55.9633 14.8972C55.9633 17.3339 57.7434 19.1085 59.8681 19.1085C61.9644 19.1085 63.6116 17.3339 63.6116 14.8972Z" fill="#4285F4"/>
<path d="M71.1397 0.945679V21.4348H68.136V0.945679H71.1397Z" fill="#34A853"/>
<path d="M82.8445 17.1731L85.2348 18.7618C84.4634 19.8997 82.6043 21.8604 79.3919 21.8604C75.4081 21.8604 72.4329 18.7901 72.4329 14.8688C72.4329 10.7111 75.4334 7.87732 79.0473 7.87732C82.6865 7.87732 84.4665 10.7647 85.0483 12.325L85.3676 13.1194L75.993 16.9903C76.7107 18.393 77.8268 19.1085 79.3919 19.1085C80.9601 19.1085 82.0478 18.3394 82.8445 17.1731ZM75.4871 14.6576L81.7537 12.0634C81.4091 11.1903 80.372 10.5819 79.1516 10.5819C77.5865 10.5819 75.4081 11.9594 75.4871 14.6576Z" fill="#EA4335"/>
<path d="M11.1578 13.0532V10.087H21.1838C21.2818 10.604 21.3324 11.2155 21.3324 11.8774C21.3324 14.1029 20.7222 16.8547 18.7555 18.8154C16.8427 20.8012 14.3986 21.8604 11.161 21.8604C5.15995 21.8604 0.11377 16.9871 0.11377 11.0043C0.11377 5.02145 5.15995 0.148193 11.161 0.148193C14.4808 0.148193 16.8458 1.44689 18.6227 3.13961L16.5233 5.23265C15.2491 4.04113 13.5228 3.11439 11.1578 3.11439C6.77561 3.11439 3.34826 6.63537 3.34826 11.0043C3.34826 15.3732 6.77561 18.8942 11.1578 18.8942C14.0002 18.8942 15.6191 17.7562 16.6561 16.7223C17.4972 15.8838 18.0505 14.686 18.2686 13.05L11.1578 13.0532Z" fill="#4285F4"/>
</svg>
