<svg width="95" height="18" viewBox="0 0 95 18" fill="none" xmlns="http://www.w3.org/2000/svg">
<g clip-path="url(#clip0_7_785)">
<path d="M7.67265 3.00148C6.55807 3.00148 6.23583 3.48298 6.23583 4.54498V6.30673H9.2088L8.91081 9.15298H6.23698V17.7907H2.66918V9.15298H0.265625V6.30673H2.66918V4.59335C2.66918 1.72235 3.85768 0.205856 7.17369 0.205856C7.86857 0.204268 8.56289 0.24447 9.25269 0.326231V3.00485L7.67265 3.00148Z" fill="#4267B2"/>
<path d="M9.45605 11.6865C9.45605 8.47802 11.0165 6.06152 14.2863 6.06152C16.0696 6.06152 17.1588 6.95477 17.6797 8.06402V6.30677H21.0973V17.7908H17.6797V16.0538C17.1842 17.1641 16.0696 18.0326 14.2863 18.0326C11.0165 18.0326 9.45605 15.6195 9.45605 12.4076V11.6865ZM13.0227 12.4594C13.0227 14.1716 13.666 15.3056 15.3258 15.3056C16.788 15.3056 17.5307 14.2684 17.5307 12.6281V11.475C17.5307 9.83477 16.788 8.79752 15.3258 8.79752C13.666 8.79752 13.0227 9.93152 13.0227 11.6438V12.4594Z" fill="#4267B2"/>
<path d="M28.5286 6.06482C29.9146 6.06482 31.2278 6.35507 31.9463 6.83657L31.1539 9.29807C30.4108 8.95338 29.5989 8.7721 28.7758 8.76707C26.8435 8.76707 26.0038 9.8527 26.0038 11.7112V12.3862C26.0038 14.2447 26.8458 15.3303 28.7758 15.3303C29.5989 15.3253 30.4108 15.144 31.1539 14.7993L31.9463 17.2597C31.2278 17.7423 29.9158 18.0326 28.5286 18.0326C24.3417 18.0326 22.4348 15.8366 22.4348 12.3142V11.7832C22.4348 8.26082 24.3417 6.06482 28.5286 6.06482Z" fill="#4267B2"/>
<path d="M32.4163 12.4875V11.475C32.4163 8.21808 34.3232 6.07495 38.2132 6.07495C41.8792 6.07495 43.4893 8.2462 43.4893 11.4311V13.2648H35.9817C36.0568 14.8331 36.7752 15.5328 38.7538 15.5328C40.0924 15.5328 41.5038 15.2673 42.5445 14.8331L43.197 17.2124C42.2557 17.6962 40.3234 18.0573 38.6152 18.0573C34.1002 18.0562 32.4163 15.8624 32.4163 12.4875ZM35.9829 10.9912H40.2934V10.7021C40.2934 9.4477 39.7736 8.45208 38.2144 8.45208C36.6031 8.4532 35.9829 9.4432 35.9829 10.9867V10.9912Z" fill="#4267B2"/>
<path d="M56.7106 12.411C56.7106 15.6195 55.1259 18.036 51.8596 18.036C50.0763 18.036 48.8381 17.1675 48.3426 16.0571V17.7941H44.9746V0.539976L48.5413 0.224976V7.89748C49.061 6.88497 50.201 6.06372 51.8607 6.06372C55.1306 6.06372 56.7118 8.47685 56.7118 11.6887L56.7106 12.411ZM53.144 11.6145C53.144 9.99785 52.5006 8.79185 50.7912 8.79185C49.329 8.79185 48.5366 9.80435 48.5366 11.4457V12.6517C48.5366 14.292 49.329 15.3056 50.7912 15.3056C52.5006 15.3056 53.144 14.0996 53.144 12.483V11.6145Z" fill="#4267B2"/>
<path d="M57.9036 12.3378V11.7596C57.9036 8.45319 59.8359 6.06482 63.7744 6.06482C67.713 6.06482 69.6465 8.45319 69.6465 11.7596V12.3378C69.6465 15.6431 67.7142 18.0326 63.7756 18.0326C59.837 18.0326 57.9036 15.6431 57.9036 12.3378ZM66.0787 11.5177C66.0787 9.99782 65.4342 8.79182 63.7687 8.79182C62.1032 8.79182 61.4644 9.99782 61.4644 11.5177V12.5797C61.4644 14.0996 62.1089 15.3056 63.7687 15.3056C65.4284 15.3056 66.0787 14.0996 66.0787 12.5797V11.5177Z" fill="#4267B2"/>
<path d="M70.8328 12.3378V11.7596C70.8328 8.45319 72.7651 6.06482 76.7036 6.06482C80.6422 6.06482 82.5745 8.45319 82.5745 11.7596V12.3378C82.5745 15.6431 80.6422 18.0326 76.7036 18.0326C72.7651 18.0326 70.8328 15.6431 70.8328 12.3378ZM79.0079 11.5177C79.0079 9.99782 78.3634 8.79182 76.7036 8.79182C75.0439 8.79182 74.4006 9.99782 74.4006 11.5177V12.5797C74.4006 14.0996 75.0439 15.3056 76.7036 15.3056C78.3634 15.3056 79.0079 14.0996 79.0079 12.5797V11.5177Z" fill="#4267B2"/>
<path d="M87.4787 11.7832L90.9957 6.30672H94.7852L91.095 11.9767L94.9342 17.7907H91.1447L87.4787 12.1657V17.7907H83.9109V0.539976L87.4787 0.224976V11.7832Z" fill="#4267B2"/>
</g>
<defs>
<clipPath id="clip0_7_785">
<rect width="95" height="18" fill="white"/>
</clipPath>
</defs>
</svg>
