<svg width="95" height="42" viewBox="0 0 95 42" fill="none" xmlns="http://www.w3.org/2000/svg">
<path d="M34.6311 22.3613L33.2769 18.1851C33.2775 18.1869 33.2777 18.1889 33.2783 18.1908C33.2776 18.1886 33.2773 18.1864 33.2767 18.1842L33.2766 18.1839V18.1837L30.5881 9.89627C30.4411 9.45966 30.0363 9.16664 29.5724 9.17032C29.1072 9.17273 28.7136 9.46004 28.5697 9.90265L26.0177 17.7691H17.9656L15.4089 9.9022C15.2652 9.46004 14.8716 9.17273 14.4063 9.17032H14.4007C13.9426 9.17032 13.5372 9.46154 13.3885 9.90303L10.7074 18.183L10.707 18.1841V18.1843C10.7064 18.1864 10.7061 18.1885 10.7054 18.1906C10.706 18.1888 10.7062 18.1868 10.7068 18.1849L9.34755 22.3614C9.24752 22.6676 9.2471 22.9976 9.34634 23.304C9.44559 23.6105 9.63939 23.8775 9.89984 24.0666L21.6363 32.6047C21.638 32.606 21.64 32.6068 21.6417 32.6081C21.6468 32.6117 21.6516 32.6153 21.6567 32.6187C21.6519 32.6155 21.6474 32.612 21.6427 32.6087L21.6426 32.6086C21.6434 32.6092 21.6443 32.6096 21.6451 32.6101L21.6471 32.6113L21.6474 32.6115C21.6656 32.6241 21.6844 32.6357 21.7039 32.6463C21.7066 32.6478 21.709 32.6497 21.7117 32.6511L21.7119 32.6512C21.7135 32.652 21.715 32.6531 21.7167 32.6539C21.718 32.6545 21.7193 32.6549 21.7205 32.6555C21.7214 32.6559 21.7224 32.6562 21.7233 32.6566C21.7255 32.6576 21.7279 32.6583 21.73 32.6594C21.7402 32.6643 21.751 32.6683 21.7615 32.6726C21.7713 32.6766 21.7808 32.6814 21.7909 32.6849L21.7922 32.6854C21.7938 32.686 21.7953 32.6869 21.7971 32.6875C21.7992 32.6882 21.8012 32.689 21.8033 32.6897L21.8058 32.6903C21.8084 32.6912 21.8112 32.6915 21.8139 32.6923L21.817 32.693C21.8311 32.6973 21.8458 32.7004 21.8603 32.7036C21.866 32.7049 21.8715 32.7067 21.8773 32.7078L21.8797 32.7084C21.8816 32.7087 21.8834 32.7094 21.8853 32.7097C21.8884 32.7102 21.8914 32.7112 21.8945 32.7117C21.897 32.712 21.8996 32.7119 21.902 32.7123L21.9033 32.7123H21.9037C21.9314 32.7163 21.9594 32.7191 21.988 32.7191H21.989C22.0177 32.7191 22.0457 32.7163 22.0735 32.7123H22.0738L22.0752 32.7123C22.0776 32.7119 22.0803 32.712 22.0827 32.7117C22.0859 32.7111 22.0889 32.7102 22.092 32.7097C22.0939 32.7094 22.0956 32.7087 22.0975 32.7084L22.0999 32.7078C22.1058 32.7066 22.1114 32.7048 22.1172 32.7035C22.1316 32.7004 22.146 32.6973 22.16 32.6931L22.1629 32.6924C22.1657 32.6916 22.1686 32.6912 22.1714 32.6904C22.1722 32.6901 22.1731 32.69 22.1739 32.6898C22.1761 32.6891 22.1782 32.6882 22.1803 32.6875C22.1819 32.6869 22.1834 32.686 22.1851 32.6854L22.1864 32.6849C22.197 32.6812 22.2071 32.6762 22.2175 32.6719C22.2272 32.6679 22.2371 32.6643 22.2465 32.6597C22.2489 32.6586 22.2513 32.6579 22.2536 32.6568L22.2564 32.6556C22.2577 32.655 22.2591 32.6546 22.2603 32.654C22.2621 32.6531 22.2637 32.652 22.2654 32.6512L22.2655 32.6511C22.2682 32.6497 22.2707 32.6476 22.2735 32.6461C22.2928 32.6356 22.3116 32.6241 22.3297 32.6116C22.3311 32.6106 22.3328 32.6099 22.3343 32.6088L22.3355 32.6081C22.3372 32.6068 22.3392 32.6059 22.3409 32.6047L34.0791 24.0663C34.3394 23.8771 34.5332 23.6102 34.6324 23.3038C34.7316 22.9974 34.7312 22.6674 34.6311 22.3613ZM29.5798 10.6727L31.8818 17.7691H27.2778L29.5798 10.6727ZM31.4787 18.969L30.5394 20.1741L23.6111 29.0624L26.8884 18.9689H31.4787V18.969ZM21.4187 32.3047C21.4187 32.3047 21.4187 32.3047 21.4187 32.3047C21.4193 32.3065 21.4203 32.3082 21.4209 32.3101C21.4203 32.3082 21.4193 32.3065 21.4187 32.3047ZM20.3676 29.063L12.5044 18.969H17.095L20.3676 29.063ZM14.3991 10.6726L16.7053 17.7691H12.1012L14.3991 10.6726ZM10.6045 23.0958C10.549 23.0555 10.5078 22.9985 10.4868 22.9332C10.4657 22.8679 10.4658 22.7976 10.4872 22.7324L11.4976 19.6277L18.9012 29.1317L10.6045 23.0958ZM21.6157 32.5889C21.6134 32.587 21.6111 32.585 21.6089 32.583L21.6074 32.5818C21.6029 32.578 21.5985 32.5742 21.5941 32.5703C21.5856 32.5629 21.5772 32.5552 21.5692 32.5473L21.5713 32.549L21.574 32.5513C21.5912 32.5678 21.6093 32.5833 21.6282 32.5975L21.6288 32.5981C21.6297 32.5987 21.6305 32.5996 21.6314 32.6003C21.6261 32.5966 21.6207 32.5929 21.6157 32.5889ZM21.9889 30.1774L20.0632 24.2378L18.3549 18.969H25.6282L21.9889 30.1774ZM22.383 32.5702C22.3785 32.5741 22.3742 32.578 22.3696 32.5818L22.368 32.5832C22.3657 32.5851 22.3635 32.5871 22.3613 32.589C22.3563 32.593 22.3509 32.5966 22.3457 32.6004C22.3466 32.5997 22.3474 32.5988 22.3484 32.5982L22.3488 32.5978C22.3677 32.5835 22.3857 32.5681 22.4028 32.5517C22.4034 32.551 22.4043 32.5505 22.405 32.5499C22.4059 32.5491 22.4068 32.5484 22.4077 32.5476C22.3997 32.5553 22.3915 32.5629 22.383 32.5702ZM33.3744 23.0957L25.0789 29.1298L32.4849 19.6285L33.4913 22.7318C33.5127 22.797 33.513 22.8674 33.492 22.9328C33.471 22.9982 33.4298 23.0552 33.3744 23.0957Z" fill="#231F20"/>
<path d="M63.0107 14.891H61.3749L61.3824 27.1003H68.0084V25.5901H63.0182L63.0107 14.891Z" fill="#231F20"/>
<path d="M74.3137 24.9578C73.901 25.3861 73.2181 25.8144 72.2876 25.8144C71.0419 25.8144 70.5392 25.1983 70.5392 24.3943C70.5392 23.1847 71.3796 22.6061 73.1656 22.6061C73.5032 22.6061 74.0435 22.6437 74.3212 22.6963V24.9578H74.3137ZM72.6178 17.5571C71.2971 17.5571 70.0814 18.023 69.1359 18.8119L69.7137 19.8187C70.3816 19.428 71.1995 19.0373 72.3776 19.0373C73.7209 19.0373 74.3137 19.7285 74.3137 20.8856V21.4791C74.051 21.4265 73.5107 21.389 73.1806 21.389C70.314 21.389 68.8583 22.3958 68.8583 24.4995C68.8583 26.3854 70.0139 27.3321 71.7623 27.3321C72.9404 27.3321 74.0735 26.7911 74.4638 25.912L74.7639 27.1067H75.9195V20.8555C75.912 18.8795 75.0566 17.5571 72.6178 17.5571Z" fill="#231F20"/>
<path d="M81.1978 25.8703C80.5825 25.8703 80.0422 25.7952 79.637 25.6073V19.9647C80.1923 19.4989 80.8826 19.1608 81.7606 19.1608C83.3439 19.1608 83.9518 20.2803 83.9518 22.091C83.9518 24.6606 82.9687 25.8703 81.1978 25.8703ZM81.8882 17.5605C80.4249 17.5605 79.637 18.5597 79.637 18.5597V16.9819L79.6295 14.8932H78.0311L78.0386 26.802C78.8416 27.1401 79.9371 27.3204 81.1303 27.3204C84.1844 27.3204 85.6552 25.3669 85.6552 21.9934C85.6477 19.3261 84.2894 17.5605 81.8882 17.5605Z" fill="#231F20"/>
<path d="M45.1994 16.2156C46.6477 16.2156 47.5857 16.6965 48.1935 17.1848L48.8989 15.9602C47.9459 15.1187 46.6552 14.6678 45.2745 14.6678C41.7927 14.6678 39.3539 16.7941 39.3539 21.0843C39.3539 25.5773 41.9878 27.328 44.9968 27.328C46.5051 27.328 47.7883 26.9748 48.6287 26.6217L48.5912 21.8206V20.3104H44.1264V21.8206H46.9779L47.0154 25.4646C46.6402 25.6525 45.9949 25.8027 45.1169 25.8027C42.7006 25.8027 41.0798 24.2775 41.0798 21.0693C41.0723 17.8009 42.7457 16.2156 45.1994 16.2156Z" fill="#231F20"/>
<path d="M56.7201 14.8893H55.1217L55.1292 16.9404V24.0256C55.1292 26.0016 55.9847 27.324 58.4235 27.324C58.7611 27.324 59.0913 27.2939 59.4065 27.2338V25.7988C59.1739 25.8363 58.9262 25.8514 58.6636 25.8514C57.3204 25.8514 56.7276 25.1601 56.7276 24.0031V19.1193H59.4065V17.782H56.7276L56.7201 14.8893Z" fill="#231F20"/>
<path d="M51.0569 27.1003H52.6552V17.7837H51.0569V27.1003Z" fill="#231F20"/>
<path d="M51.0569 16.4989H52.6552V14.8986H51.0569V16.4989Z" fill="#231F20"/>
</svg>
