<svg width="105" height="15" viewBox="0 0 105 15" fill="none" xmlns="http://www.w3.org/2000/svg">
<path d="M99.105 0.108521C99.105 0.108521 99.7456 0.108521 100.013 0.307966C100.013 0.307966 100.282 0.507411 100.489 1.11671L104.969 14.4197C104.969 14.4197 105.031 14.5876 104.98 14.7251C104.98 14.7251 104.928 14.8613 104.7 14.8613H102.801C102.801 14.8613 102.574 14.8613 102.44 14.809C102.44 14.809 102.305 14.7567 102.223 14.5257L101.315 11.6469H96.0697L95.1615 14.5036C95.1615 14.5036 95.0994 14.6935 94.9859 14.7773C94.9859 14.7773 94.8723 14.8613 94.625 14.8613H92.7249C92.7249 14.8613 92.4979 14.8613 92.4357 14.7251C92.4357 14.7251 92.3749 14.5876 92.4357 14.4197L96.8954 1.11671C96.8954 1.11671 96.9995 0.801751 97.1022 0.613321C97.1022 0.613321 97.2063 0.423504 97.3603 0.318981C97.3603 0.318981 97.5157 0.213071 97.7225 0.160796C97.7225 0.160796 97.9279 0.108521 98.2171 0.108521H99.105ZM98.7131 2.94601H98.6104L97.763 5.86466L96.69 9.45451H100.654L99.5807 5.92653L98.7131 2.94601Z" fill="black"/>
<path d="M56.4676 0.148438C56.4676 0.148438 56.7568 0.148438 56.8595 0.222716C56.8595 0.222716 56.9622 0.295607 56.9622 0.589946L56.9622 6.03932H63.3843V0.589946C63.3843 0.589946 63.3843 0.316223 63.4992 0.232344C63.4992 0.232344 63.6127 0.148438 63.86 0.148438H65.4331C65.4331 0.148438 65.7223 0.148438 65.8156 0.222716C65.8156 0.222716 65.9088 0.295607 65.9088 0.589946V14.4197C65.9088 14.4197 65.9088 14.7141 65.8156 14.7883C65.8156 14.7883 65.7223 14.8612 65.4331 14.8612H63.86C63.86 14.8612 63.6127 14.8612 63.4992 14.7773C63.4992 14.7773 63.3843 14.6934 63.3843 14.4197V8.24412H56.9622V14.4197C56.9622 14.4197 56.9622 14.7141 56.8595 14.7883C56.8595 14.7883 56.7568 14.8612 56.4676 14.8612H54.8999C54.8999 14.8612 54.6729 14.8612 54.5499 14.7773C54.5499 14.7773 54.4256 14.6934 54.4256 14.4197L54.4255 0.589946C54.4256 0.589946 54.4256 0.316223 54.5499 0.232344C54.5499 0.232344 54.6729 0.148438 54.8999 0.148438H56.4676Z" fill="black"/>
<path d="M50.1755 0.148438C50.1755 0.148438 50.4026 0.148437 50.4755 0.232344C50.4755 0.232344 50.5472 0.31761 50.5472 0.548686V2.00248C50.5472 2.00248 50.5472 2.21294 50.4755 2.29682C50.4755 2.29682 50.4026 2.38073 50.1755 2.38073H46.2536V14.4197C46.2536 14.4197 46.2536 14.7141 46.1604 14.7883C46.1604 14.7883 46.0671 14.8612 45.7779 14.8612H44.1643C44.1643 14.8612 43.917 14.8612 43.8035 14.7773C43.8035 14.7773 43.69 14.6934 43.69 14.4197V2.38073H39.8492C39.8492 2.38073 39.6221 2.38073 39.56 2.29682C39.56 2.29682 39.4978 2.21294 39.4978 2.00248L39.4978 0.548686C39.4978 0.548686 39.4978 0.31761 39.56 0.232344C39.56 0.232344 39.6221 0.148438 39.8492 0.148438H50.1755Z" fill="black"/>
<path d="M24.0216 0.0610255C28.0538 0.0610255 31.3199 3.38511 31.3199 7.48889C31.3199 11.5899 28.0538 14.9168 24.0216 14.9168H7.9336C7.35835 14.9168 6.89215 14.4423 6.89215 13.8568C6.89215 13.2714 7.35835 12.7969 7.9336 12.7969H11.6823C12.2548 12.7969 12.721 12.3224 12.721 11.737C12.721 11.1515 12.2548 10.677 11.6823 10.677H10.848C10.2728 10.677 9.80658 10.2025 9.80658 9.61708C9.80658 9.03162 10.2728 8.55715 10.848 8.55715H13.3481C13.9265 8.55551 14.3751 8.07574 14.3895 7.49721C14.3895 6.91175 13.9233 6.43728 13.3481 6.43728H4.59931C4.02406 6.43728 3.55786 5.96281 3.55786 5.37735C3.55786 4.79188 4.02406 4.31741 4.59931 4.31741H11.0553C11.6337 4.31577 12.0823 3.836 12.0967 3.25748C12.0967 2.67202 11.6305 2.19754 11.0552 2.19754H9.59938C9.02413 2.19754 8.55793 1.72307 8.55793 1.13761C8.55793 0.552147 9.02413 0.0499268 9.59938 0.0499268L24.0216 0.0610255ZM22.8547 2.53606C20.6137 2.53606 18.8007 4.384 18.8007 6.66203V8.31298C18.8007 10.5938 20.6137 12.4389 22.8547 12.4389C25.093 12.4389 26.9088 10.5938 26.9088 8.31298V6.66203C26.9088 4.384 25.093 2.53606 22.8547 2.53606ZM24.2397 6.43728C24.7795 6.43728 25.2184 6.88401 25.2184 7.4334V7.56103C25.2184 8.11042 24.7795 8.55715 24.2397 8.55715H21.1971C20.6573 8.55715 20.2184 8.11042 20.2184 7.56103V7.4334C20.2184 6.88401 20.6573 6.43728 21.1971 6.43728H24.2397Z" fill="black"/>
<path d="M4.662 12.7969C5.20454 12.7969 5.64075 13.2408 5.64075 13.793V13.9206C5.64075 14.47 5.20454 14.9167 4.662 14.9167H1.06053C0.520724 14.9167 0.0817871 14.47 0.0817871 13.9206V13.793C0.0817871 13.2408 0.520724 12.7969 1.06053 12.7969H4.662Z" fill="black"/>
<path d="M80.5056 0.134644C80.5056 0.134644 80.7732 0.134644 80.8461 0.251569C80.8461 0.251569 80.9178 0.367107 80.9178 0.6188V1.94469C80.9178 1.94469 80.9178 2.21841 80.8461 2.31331C80.8461 2.31331 80.7732 2.4082 80.5056 2.4082H75.0134C75.0134 2.4082 74.2282 2.4082 73.9079 2.76444C73.9079 2.76444 73.5889 3.12205 73.5889 3.79324V5.99804H79.8231C79.8231 5.99804 80.0921 5.99804 80.165 6.10395C80.165 6.10395 80.2367 6.20848 80.2367 6.50146V7.65542C80.2367 7.65542 80.2367 7.90712 80.165 8.0213C80.165 8.0213 80.0921 8.13681 79.8231 8.13681H73.5889V11.2081C73.5889 11.2081 73.5889 11.8807 73.9295 12.2273C73.9295 12.2273 74.2701 12.5753 75.0134 12.5753H80.6286C80.6286 12.5753 80.9178 12.5753 80.9908 12.6798C80.9908 12.6798 81.0624 12.7843 81.0624 13.0787V14.3785C81.0624 14.3785 81.0624 14.6095 80.9799 14.7347C80.9799 14.7347 80.8975 14.8612 80.6286 14.8612H74.7444C74.7444 14.8612 73.6498 14.8612 72.947 14.5463C72.947 14.5463 72.2443 14.2313 71.8199 13.7059C71.8199 13.7059 71.3956 13.1805 71.2307 12.5079C71.2307 12.5079 71.0645 11.8367 71.0645 11.1008V3.91705C71.0645 3.91705 71.0645 3.1812 71.2604 2.49899C71.2604 2.49899 71.4577 1.81541 71.9024 1.29C71.9024 1.29 72.347 0.76597 73.0497 0.449627C73.0497 0.449627 73.7538 0.134644 74.7444 0.134644H80.5056Z" fill="black"/>
<path d="M87.7691 0.148438C87.7691 0.148438 88.0569 0.148438 88.161 0.222716C88.161 0.222716 88.2637 0.295607 88.2637 0.589946V14.4197C88.2637 14.4197 88.2637 14.7141 88.161 14.7883C88.161 14.7883 88.0569 14.8612 87.7691 14.8612H86.2014C86.2014 14.8612 85.9541 14.8612 85.8406 14.7773C85.8406 14.7773 85.7271 14.6934 85.7271 14.4197V0.589946C85.7271 0.589946 85.7271 0.316223 85.8406 0.232344C85.8406 0.232344 85.9541 0.148438 86.2014 0.148438H87.7691Z" fill="black"/>
<path d="M6.33039 0.0776367C6.8702 0.0776367 7.30641 0.524362 7.30641 1.07375V1.20416C7.30641 1.75355 6.8702 2.1975 6.33039 2.1975H2.30907C1.76926 2.1975 1.33032 1.75355 1.33032 1.20416V1.07375C1.33032 0.524362 1.76926 0.0776367 2.30907 0.0776367H6.33039Z" fill="black"/>
<path d="M7.57915 8.55713C8.11896 8.55713 8.5579 9.00385 8.5579 9.55324V9.68088C8.5579 10.2303 8.11896 10.677 7.57915 10.677H5.37084C4.83103 10.677 4.39209 10.2303 4.39209 9.68088V9.55324C4.39209 9.00385 4.83103 8.55713 5.37084 8.55713H7.57915Z" fill="black"/>
</svg>
