<svg width="211" height="52" viewBox="0 0 211 52" fill="none" xmlns="http://www.w3.org/2000/svg">
<g filter="url(#filter0_d_7_1008)">
<path d="M2 11C2 6.02944 6.02944 2 11 2H200C204.971 2 209 6.02944 209 11V40C209 44.9706 204.971 49 200 49H11C6.02944 49 2 44.9706 2 40V11Z" fill="white"/>
</g>
<path d="M59.8867 26.7373C59.7871 28.1143 59.2773 29.1982 58.3574 29.9893C57.4434 30.7803 56.2363 31.1758 54.7363 31.1758C53.0957 31.1758 51.8037 30.625 50.8604 29.5234C49.9229 28.416 49.4541 26.8984 49.4541 24.9707V24.1885C49.4541 22.958 49.6709 21.874 50.1045 20.9365C50.5381 19.999 51.1562 19.2812 51.959 18.7832C52.7676 18.2793 53.7051 18.0273 54.7715 18.0273C56.248 18.0273 57.4375 18.4229 58.3398 19.2139C59.2422 20.0049 59.7637 21.1152 59.9043 22.5449H57.2676C57.2031 21.7188 56.9717 21.1211 56.5732 20.752C56.1807 20.377 55.5801 20.1895 54.7715 20.1895C53.8926 20.1895 53.2334 20.5059 52.7939 21.1387C52.3604 21.7656 52.1377 22.7412 52.126 24.0654V25.0322C52.126 26.415 52.334 27.4258 52.75 28.0645C53.1719 28.7031 53.834 29.0225 54.7363 29.0225C55.5508 29.0225 56.1572 28.8379 56.5557 28.4688C56.96 28.0938 57.1914 27.5166 57.25 26.7373H59.8867ZM63.9297 22.5273C64.6035 21.7188 65.4502 21.3145 66.4697 21.3145C68.5322 21.3145 69.5781 22.5127 69.6074 24.9092V31H67.0674V24.9795C67.0674 24.4346 66.9502 24.0332 66.7158 23.7754C66.4814 23.5117 66.0918 23.3799 65.5469 23.3799C64.8027 23.3799 64.2637 23.667 63.9297 24.2412V31H61.3896V17.5H63.9297V22.5273ZM76.8672 23.8721C76.5215 23.8252 76.2168 23.8018 75.9531 23.8018C74.9922 23.8018 74.3623 24.127 74.0635 24.7773V31H71.5234V21.4902H73.9229L73.9932 22.624C74.5029 21.751 75.209 21.3145 76.1113 21.3145C76.3926 21.3145 76.6562 21.3525 76.9023 21.4287L76.8672 23.8721ZM77.3857 26.1572C77.3857 25.2139 77.5674 24.373 77.9307 23.6348C78.2939 22.8965 78.8154 22.3252 79.4951 21.9209C80.1807 21.5166 80.9746 21.3145 81.877 21.3145C83.1602 21.3145 84.2061 21.707 85.0146 22.4922C85.8291 23.2773 86.2832 24.3438 86.377 25.6914L86.3945 26.3418C86.3945 27.8008 85.9873 28.9727 85.1729 29.8574C84.3584 30.7363 83.2656 31.1758 81.8945 31.1758C80.5234 31.1758 79.4277 30.7363 78.6074 29.8574C77.793 28.9785 77.3857 27.7832 77.3857 26.2715V26.1572ZM79.9258 26.3418C79.9258 27.2441 80.0957 27.9355 80.4355 28.416C80.7754 28.8906 81.2617 29.1279 81.8945 29.1279C82.5098 29.1279 82.9902 28.8936 83.3359 28.4248C83.6816 27.9502 83.8545 27.1943 83.8545 26.1572C83.8545 25.2725 83.6816 24.5869 83.3359 24.1006C82.9902 23.6143 82.5039 23.3711 81.877 23.3711C81.2559 23.3711 80.7754 23.6143 80.4355 24.1006C80.0957 24.5811 79.9258 25.3281 79.9258 26.3418ZM90.3408 21.4902L90.4199 22.5537C91.0938 21.7275 92.0049 21.3145 93.1533 21.3145C94.3779 21.3145 95.2188 21.7979 95.6758 22.7646C96.3438 21.7979 97.2959 21.3145 98.5322 21.3145C99.5635 21.3145 100.331 21.6162 100.835 22.2197C101.339 22.8174 101.591 23.7197 101.591 24.9268V31H99.042V24.9355C99.042 24.3965 98.9365 24.0039 98.7256 23.7578C98.5146 23.5059 98.1426 23.3799 97.6094 23.3799C96.8477 23.3799 96.3203 23.7432 96.0273 24.4697L96.0361 31H93.4961V24.9443C93.4961 24.3936 93.3877 23.9951 93.1709 23.749C92.9541 23.5029 92.585 23.3799 92.0635 23.3799C91.3428 23.3799 90.8213 23.6787 90.499 24.2764V31H87.959V21.4902H90.3408ZM107.928 31.1758C106.533 31.1758 105.396 30.748 104.518 29.8926C103.645 29.0371 103.208 27.8975 103.208 26.4736V26.2275C103.208 25.2725 103.393 24.4199 103.762 23.6699C104.131 22.9141 104.652 22.334 105.326 21.9297C106.006 21.5195 106.779 21.3145 107.646 21.3145C108.947 21.3145 109.97 21.7246 110.714 22.5449C111.464 23.3652 111.839 24.5283 111.839 26.0342V27.0713H105.783C105.865 27.6924 106.111 28.1904 106.521 28.5654C106.938 28.9404 107.462 29.1279 108.095 29.1279C109.073 29.1279 109.838 28.7734 110.389 28.0645L111.637 29.4619C111.256 30.001 110.74 30.4229 110.09 30.7275C109.439 31.0264 108.719 31.1758 107.928 31.1758ZM107.638 23.3711C107.134 23.3711 106.724 23.541 106.407 23.8809C106.097 24.2207 105.897 24.707 105.81 25.3398H109.343V25.1377C109.331 24.5752 109.179 24.1416 108.886 23.8369C108.593 23.5264 108.177 23.3711 107.638 23.3711ZM125.638 25.4541H120.575V28.8818H126.517V31H117.938V18.2031H126.499V20.3389H120.575V23.3887H125.638V25.4541ZM131.518 24.3291L133.117 21.4902H135.833L133.126 26.1484L135.947 31H133.223L131.526 28.0117L129.839 31H127.105L129.927 26.1484L127.229 21.4902H129.953L131.518 24.3291ZM140.096 19.1523V21.4902H141.722V23.3535H140.096V28.0996C140.096 28.4512 140.163 28.7031 140.298 28.8555C140.433 29.0078 140.69 29.084 141.071 29.084C141.353 29.084 141.602 29.0635 141.818 29.0225V30.9473C141.32 31.0996 140.808 31.1758 140.28 31.1758C138.499 31.1758 137.591 30.2764 137.556 28.4775V23.3535H136.167V21.4902H137.556V19.1523H140.096ZM147.514 31.1758C146.119 31.1758 144.982 30.748 144.104 29.8926C143.23 29.0371 142.794 27.8975 142.794 26.4736V26.2275C142.794 25.2725 142.979 24.4199 143.348 23.6699C143.717 22.9141 144.238 22.334 144.912 21.9297C145.592 21.5195 146.365 21.3145 147.232 21.3145C148.533 21.3145 149.556 21.7246 150.3 22.5449C151.05 23.3652 151.425 24.5283 151.425 26.0342V27.0713H145.369C145.451 27.6924 145.697 28.1904 146.107 28.5654C146.523 28.9404 147.048 29.1279 147.681 29.1279C148.659 29.1279 149.424 28.7734 149.975 28.0645L151.223 29.4619C150.842 30.001 150.326 30.4229 149.676 30.7275C149.025 31.0264 148.305 31.1758 147.514 31.1758ZM147.224 23.3711C146.72 23.3711 146.31 23.541 145.993 23.8809C145.683 24.2207 145.483 24.707 145.396 25.3398H148.929V25.1377C148.917 24.5752 148.765 24.1416 148.472 23.8369C148.179 23.5264 147.763 23.3711 147.224 23.3711ZM155.213 21.4902L155.292 22.5889C155.972 21.7393 156.883 21.3145 158.025 21.3145C159.033 21.3145 159.783 21.6104 160.275 22.2021C160.768 22.7939 161.02 23.6787 161.031 24.8564V31H158.491V24.918C158.491 24.3789 158.374 23.9893 158.14 23.749C157.905 23.5029 157.516 23.3799 156.971 23.3799C156.256 23.3799 155.72 23.6846 155.362 24.2939V31H152.822V21.4902H155.213ZM168.115 28.3721C168.115 28.0615 167.96 27.8184 167.649 27.6426C167.345 27.4609 166.853 27.2998 166.173 27.1592C163.911 26.6846 162.78 25.7236 162.78 24.2764C162.78 23.4326 163.129 22.7295 163.826 22.167C164.529 21.5986 165.446 21.3145 166.577 21.3145C167.784 21.3145 168.748 21.5986 169.469 22.167C170.195 22.7354 170.559 23.4736 170.559 24.3818H168.019C168.019 24.0186 167.901 23.7197 167.667 23.4854C167.433 23.2451 167.066 23.125 166.568 23.125C166.141 23.125 165.81 23.2217 165.575 23.415C165.341 23.6084 165.224 23.8545 165.224 24.1533C165.224 24.4346 165.355 24.6631 165.619 24.8389C165.889 25.0088 166.34 25.1582 166.973 25.2871C167.605 25.4102 168.139 25.5508 168.572 25.709C169.914 26.2012 170.585 27.0537 170.585 28.2666C170.585 29.1338 170.213 29.8369 169.469 30.376C168.725 30.9092 167.764 31.1758 166.586 31.1758C165.789 31.1758 165.08 31.0352 164.459 30.7539C163.844 30.4668 163.36 30.0771 163.009 29.585C162.657 29.0869 162.481 28.5508 162.481 27.9766H164.89C164.913 28.4277 165.08 28.7734 165.391 29.0137C165.701 29.2539 166.117 29.374 166.639 29.374C167.125 29.374 167.491 29.2832 167.737 29.1016C167.989 28.9141 168.115 28.6709 168.115 28.3721ZM174.909 31H172.36V21.4902H174.909V31ZM172.211 19.0293C172.211 18.6484 172.337 18.335 172.589 18.0889C172.847 17.8428 173.195 17.7197 173.635 17.7197C174.068 17.7197 174.414 17.8428 174.672 18.0889C174.93 18.335 175.059 18.6484 175.059 19.0293C175.059 19.416 174.927 19.7324 174.663 19.9785C174.405 20.2246 174.062 20.3477 173.635 20.3477C173.207 20.3477 172.861 20.2246 172.598 19.9785C172.34 19.7324 172.211 19.416 172.211 19.0293ZM176.614 26.1572C176.614 25.2139 176.796 24.373 177.159 23.6348C177.522 22.8965 178.044 22.3252 178.724 21.9209C179.409 21.5166 180.203 21.3145 181.105 21.3145C182.389 21.3145 183.435 21.707 184.243 22.4922C185.058 23.2773 185.512 24.3438 185.605 25.6914L185.623 26.3418C185.623 27.8008 185.216 28.9727 184.401 29.8574C183.587 30.7363 182.494 31.1758 181.123 31.1758C179.752 31.1758 178.656 30.7363 177.836 29.8574C177.021 28.9785 176.614 27.7832 176.614 26.2715V26.1572ZM179.154 26.3418C179.154 27.2441 179.324 27.9355 179.664 28.416C180.004 28.8906 180.49 29.1279 181.123 29.1279C181.738 29.1279 182.219 28.8936 182.564 28.4248C182.91 27.9502 183.083 27.1943 183.083 26.1572C183.083 25.2725 182.91 24.5869 182.564 24.1006C182.219 23.6143 181.732 23.3711 181.105 23.3711C180.484 23.3711 180.004 23.6143 179.664 24.1006C179.324 24.5811 179.154 25.3281 179.154 26.3418ZM189.525 21.4902L189.604 22.5889C190.284 21.7393 191.195 21.3145 192.338 21.3145C193.346 21.3145 194.096 21.6104 194.588 22.2021C195.08 22.7939 195.332 23.6787 195.344 24.8564V31H192.804V24.918C192.804 24.3789 192.687 23.9893 192.452 23.749C192.218 23.5029 191.828 23.3799 191.283 23.3799C190.568 23.3799 190.032 23.6846 189.675 24.2939V31H187.135V21.4902H189.525Z" fill="#12100C"/>
<path d="M16.7463 14V27.5H21.6701L26.0001 20H37.0001V14H16.7463Z" fill="#DB4437"/>
<path d="M16.7463 14V27.5H21.6701L26.0001 20H37.0001V14H16.7463Z" fill="url(#paint0_linear_7_1008)"/>
<path d="M21.7888 27.4562L16.81 18.9175L16.7375 19.0425L21.68 27.5175L21.7888 27.4562Z" fill="#3E2723" fill-opacity="0.15"/>
<path d="M15 36H25.4712L30.3312 31.14V27.5H21.67L15 16.06V36Z" fill="#0F9D58"/>
<path d="M15 36H25.4712L30.3312 31.14V27.5H21.67L15 16.06V36Z" fill="url(#paint1_linear_7_1008)"/>
<path d="M30.2299 27.6663L30.1261 27.6063L25.3274 36H25.4711L30.2336 27.67L30.2299 27.6663Z" fill="#263238" fill-opacity="0.15"/>
<path d="M25.9999 20L30.3312 27.5L25.4712 36H36.9999V20H25.9999Z" fill="#FFCD40"/>
<path d="M25.9999 20L30.3312 27.5L25.4712 36H36.9999V20H25.9999Z" fill="url(#paint2_linear_7_1008)"/>
<path d="M25.9999 20L30.3312 27.5L25.4712 36H36.9999V20H25.9999Z" fill="#FFCD40"/>
<path d="M25.9999 20L30.3312 27.5L25.4712 36H36.9999V20H25.9999Z" fill="url(#paint3_linear_7_1008)"/>
<path d="M16.7463 14V27.5H21.6701L26.0001 20H37.0001V14H16.7463Z" fill="#DB4437"/>
<path d="M16.7463 14V27.5H21.6701L26.0001 20H37.0001V14H16.7463Z" fill="url(#paint4_linear_7_1008)"/>
<path d="M26 20V22.6187L35.8 20H26Z" fill="url(#paint5_radial_7_1008)"/>
<path d="M15 36H25.4712L30.3312 31.14V27.5H21.67L15 16.06V36Z" fill="#0F9D58"/>
<path d="M15 36H25.4712L30.3312 31.14V27.5H21.67L15 16.06V36Z" fill="url(#paint6_linear_7_1008)"/>
<path d="M16.7463 19.0563L23.9026 26.2113L21.6701 27.5L16.7463 19.0563Z" fill="url(#paint7_radial_7_1008)"/>
<path d="M25.4788 35.9862L28.0988 26.2112L30.3313 27.5L25.4788 35.9862Z" fill="url(#paint8_radial_7_1008)"/>
<path d="M26 30C28.7614 30 31 27.7614 31 25C31 22.2386 28.7614 20 26 20C23.2386 20 21 22.2386 21 25C21 27.7614 23.2386 30 26 30Z" fill="#F1F1F1"/>
<path d="M26 29C28.2091 29 30 27.2091 30 25C30 22.7909 28.2091 21 26 21C23.7909 21 22 22.7909 22 25C22 27.2091 23.7909 29 26 29Z" fill="#4285F4"/>
<path d="M26 19.875C23.2387 19.875 21 22.1137 21 24.875V25C21 22.2387 23.2387 20 26 20H37V19.875H26Z" fill="#3E2723" fill-opacity="0.2"/>
<path d="M30.325 27.5C29.46 28.9925 27.8487 30 26 30C24.15 30 22.5387 28.9925 21.6737 27.5H21.6687L15 16.06V16.185L21.67 27.625H21.675C22.54 29.1175 24.1513 30.125 26.0013 30.125C27.85 30.125 29.4613 29.1187 30.3263 27.625H30.3325V27.5H30.325Z" fill="white" fill-opacity="0.1"/>
<path opacity="0.1" d="M26.125 20C26.1037 20 26.0838 20.0025 26.0625 20.0037C28.795 20.0375 31 22.26 31 25C31 27.74 28.795 29.9625 26.0625 29.9963C26.0838 29.9963 26.1037 30 26.125 30C28.8863 30 31.125 27.7613 31.125 25C31.125 22.2387 28.8863 20 26.125 20Z" fill="#3E2723"/>
<path d="M30.3749 27.6662C30.7999 26.9312 31.0462 26.0812 31.0462 25.1712C31.0462 24.6437 30.9637 24.1362 30.8124 23.66C30.9312 24.0875 30.9999 24.5362 30.9999 25.0012C30.9999 25.9112 30.7537 26.7612 30.3287 27.4962L30.3312 27.5012L25.4712 36.0012H25.6162L30.3774 27.6712L30.3749 27.6662V27.6662Z" fill="white" fill-opacity="0.2"/>
<path d="M26 14.125C32.0538 14.125 36.965 19.0163 36.9988 25.0625C36.9988 25.0412 37 25.0213 37 25C37 18.925 32.075 14 26 14C19.925 14 15 18.925 15 25C15 25.0213 15.0013 25.0412 15.0013 25.0625C15.035 19.0163 19.9462 14.125 26 14.125Z" fill="white" fill-opacity="0.2"/>
<path d="M26 35.875C32.0538 35.875 36.965 30.9837 36.9988 24.9375C36.9988 24.9588 37 24.9787 37 25C37 31.075 32.075 36 26 36C19.925 36 15 31.075 15 25C15 24.9787 15.0013 24.9588 15.0013 24.9375C15.035 30.9837 19.9462 35.875 26 35.875Z" fill="#3E2723" fill-opacity="0.15"/>
<path d="M26 36C32.0751 36 37 31.0751 37 25C37 18.9249 32.0751 14 26 14C19.9249 14 15 18.9249 15 25C15 31.0751 19.9249 36 26 36Z" fill="url(#paint9_radial_7_1008)"/>
<rect x="2.5" y="2.5" width="206" height="46" stroke="black"/>
<defs>
<filter id="filter0_d_7_1008" x="0" y="0.5" width="211" height="51" filterUnits="userSpaceOnUse" color-interpolation-filters="sRGB">
<feFlood flood-opacity="0" result="BackgroundImageFix"/>
<feColorMatrix in="SourceAlpha" type="matrix" values="0 0 0 0 0 0 0 0 0 0 0 0 0 0 0 0 0 0 127 0" result="hardAlpha"/>
<feOffset dy="0.5"/>
<feGaussianBlur stdDeviation="1"/>
<feColorMatrix type="matrix" values="0 0 0 0 0 0 0 0 0 0 0 0 0 0 0 0 0 0 0.1 0"/>
<feBlend mode="normal" in2="BackgroundImageFix" result="effect1_dropShadow_7_1008"/>
<feBlend mode="normal" in="SourceGraphic" in2="effect1_dropShadow_7_1008" result="shape"/>
</filter>
<linearGradient id="paint0_linear_7_1008" x1="17.6672" y1="22.3776" x2="24.2297" y2="18.5442" gradientUnits="userSpaceOnUse">
<stop stop-color="#A52714" stop-opacity="0.6"/>
<stop offset="0.66" stop-color="#A52714" stop-opacity="0"/>
</linearGradient>
<linearGradient id="paint1_linear_7_1008" x1="27.859" y1="33.5619" x2="20.5672" y2="29.2911" gradientUnits="userSpaceOnUse">
<stop stop-color="#055524" stop-opacity="0.4"/>
<stop offset="0.33" stop-color="#055524" stop-opacity="0"/>
</linearGradient>
<linearGradient id="paint2_linear_7_1008" x1="29.2322" y1="19.2255" x2="31.0683" y2="27.2662" gradientUnits="userSpaceOnUse">
<stop stop-color="#EA6100" stop-opacity="0.3"/>
<stop offset="0.66" stop-color="#EA6100" stop-opacity="0"/>
</linearGradient>
<linearGradient id="paint3_linear_7_1008" x1="29.2322" y1="19.2255" x2="31.0683" y2="27.2662" gradientUnits="userSpaceOnUse">
<stop stop-color="#EA6100" stop-opacity="0.3"/>
<stop offset="0.66" stop-color="#EA6100" stop-opacity="0"/>
</linearGradient>
<linearGradient id="paint4_linear_7_1008" x1="17.6672" y1="22.3776" x2="24.2297" y2="18.5442" gradientUnits="userSpaceOnUse">
<stop stop-color="#A52714" stop-opacity="0.6"/>
<stop offset="0.66" stop-color="#A52714" stop-opacity="0"/>
</linearGradient>
<radialGradient id="paint5_radial_7_1008" cx="0" cy="0" r="1" gradientUnits="userSpaceOnUse" gradientTransform="translate(25.522 19.9935) scale(10.5097)">
<stop stop-color="#3E2723" stop-opacity="0.2"/>
<stop offset="1" stop-color="#3E2723" stop-opacity="0"/>
</radialGradient>
<linearGradient id="paint6_linear_7_1008" x1="27.859" y1="33.5619" x2="20.5672" y2="29.2911" gradientUnits="userSpaceOnUse">
<stop stop-color="#055524" stop-opacity="0.4"/>
<stop offset="0.33" stop-color="#055524" stop-opacity="0"/>
</linearGradient>
<radialGradient id="paint7_radial_7_1008" cx="0" cy="0" r="1" gradientUnits="userSpaceOnUse" gradientTransform="translate(16.7345 19.065) scale(9.7555)">
<stop stop-color="#3E2723" stop-opacity="0.2"/>
<stop offset="1" stop-color="#3E2723" stop-opacity="0"/>
</radialGradient>
<radialGradient id="paint8_radial_7_1008" cx="0" cy="0" r="1" gradientUnits="userSpaceOnUse" gradientTransform="translate(25.9805 25.0172) scale(10.9837)">
<stop stop-color="#263238" stop-opacity="0.2"/>
<stop offset="1" stop-color="#263238" stop-opacity="0"/>
</radialGradient>
<radialGradient id="paint9_radial_7_1008" cx="0" cy="0" r="1" gradientUnits="userSpaceOnUse" gradientTransform="translate(18.2857 17.0018) scale(22.0932)">
<stop stop-color="white" stop-opacity="0.1"/>
<stop offset="1" stop-color="white" stop-opacity="0"/>
</radialGradient>
</defs>
</svg>
