<svg width="203" height="52" viewBox="0 0 203 52" fill="none" xmlns="http://www.w3.org/2000/svg">
<g filter="url(#filter0_d_7_1051)">
<path d="M2 11C2 6.02944 6.02944 2 11 2H192C196.971 2 201 6.02944 201 11V40C201 44.9706 196.971 49 192 49H11C6.02944 49 2 44.9706 2 40V11Z" fill="white"/>
</g>
<path d="M57.1611 25.7705H52.0986V31H49.4619V18.2031H57.7939V20.3389H52.0986V23.6436H57.1611V25.7705ZM61.8369 31H59.2881V21.4902H61.8369V31ZM59.1387 19.0293C59.1387 18.6484 59.2646 18.335 59.5166 18.0889C59.7744 17.8428 60.123 17.7197 60.5625 17.7197C60.9961 17.7197 61.3418 17.8428 61.5996 18.0889C61.8574 18.335 61.9863 18.6484 61.9863 19.0293C61.9863 19.416 61.8545 19.7324 61.5908 19.9785C61.333 20.2246 60.9902 20.3477 60.5625 20.3477C60.1348 20.3477 59.7891 20.2246 59.5254 19.9785C59.2676 19.7324 59.1387 19.416 59.1387 19.0293ZM69.2812 23.8721C68.9355 23.8252 68.6309 23.8018 68.3672 23.8018C67.4062 23.8018 66.7764 24.127 66.4775 24.7773V31H63.9375V21.4902H66.3369L66.4072 22.624C66.917 21.751 67.623 21.3145 68.5254 21.3145C68.8066 21.3145 69.0703 21.3525 69.3164 21.4287L69.2812 23.8721ZM74.7129 31.1758C73.3184 31.1758 72.1816 30.748 71.3027 29.8926C70.4297 29.0371 69.9932 27.8975 69.9932 26.4736V26.2275C69.9932 25.2725 70.1777 24.4199 70.5469 23.6699C70.916 22.9141 71.4375 22.334 72.1113 21.9297C72.791 21.5195 73.5645 21.3145 74.4316 21.3145C75.7324 21.3145 76.7549 21.7246 77.499 22.5449C78.249 23.3652 78.624 24.5283 78.624 26.0342V27.0713H72.5684C72.6504 27.6924 72.8965 28.1904 73.3066 28.5654C73.7227 28.9404 74.2471 29.1279 74.8799 29.1279C75.8584 29.1279 76.623 28.7734 77.1738 28.0645L78.4219 29.4619C78.041 30.001 77.5254 30.4229 76.875 30.7275C76.2246 31.0264 75.5039 31.1758 74.7129 31.1758ZM74.4229 23.3711C73.9189 23.3711 73.5088 23.541 73.1924 23.8809C72.8818 24.2207 72.6826 24.707 72.5947 25.3398H76.1279V25.1377C76.1162 24.5752 75.9639 24.1416 75.6709 23.8369C75.3779 23.5264 74.9619 23.3711 74.4229 23.3711ZM80.7686 31V23.3535H79.3535V21.4902H80.7686V20.6816C80.7686 19.6152 81.0732 18.7891 81.6826 18.2031C82.2979 17.6113 83.1562 17.3154 84.2578 17.3154C84.6094 17.3154 85.04 17.374 85.5498 17.4912L85.5234 19.46C85.3125 19.4072 85.0547 19.3809 84.75 19.3809C83.7949 19.3809 83.3174 19.8291 83.3174 20.7256V21.4902H85.207V23.3535H83.3174V31H80.7686ZM86.1299 26.1572C86.1299 25.2139 86.3115 24.373 86.6748 23.6348C87.0381 22.8965 87.5596 22.3252 88.2393 21.9209C88.9248 21.5166 89.7188 21.3145 90.6211 21.3145C91.9043 21.3145 92.9502 21.707 93.7588 22.4922C94.5732 23.2773 95.0273 24.3438 95.1211 25.6914L95.1387 26.3418C95.1387 27.8008 94.7314 28.9727 93.917 29.8574C93.1025 30.7363 92.0098 31.1758 90.6387 31.1758C89.2676 31.1758 88.1719 30.7363 87.3516 29.8574C86.5371 28.9785 86.1299 27.7832 86.1299 26.2715V26.1572ZM88.6699 26.3418C88.6699 27.2441 88.8398 27.9355 89.1797 28.416C89.5195 28.8906 90.0059 29.1279 90.6387 29.1279C91.2539 29.1279 91.7344 28.8936 92.0801 28.4248C92.4258 27.9502 92.5986 27.1943 92.5986 26.1572C92.5986 25.2725 92.4258 24.5869 92.0801 24.1006C91.7344 23.6143 91.248 23.3711 90.6211 23.3711C90 23.3711 89.5195 23.6143 89.1797 24.1006C88.8398 24.5811 88.6699 25.3281 88.6699 26.3418ZM100.131 24.3291L101.73 21.4902H104.446L101.739 26.1484L104.561 31H101.836L100.14 28.0117L98.4521 31H95.7188L98.54 26.1484L95.8418 21.4902H98.5664L100.131 24.3291ZM118.017 25.4541H112.954V28.8818H118.896V31H110.317V18.2031H118.878V20.3389H112.954V23.3887H118.017V25.4541ZM123.896 24.3291L125.496 21.4902H128.212L125.505 26.1484L128.326 31H125.602L123.905 28.0117L122.218 31H119.484L122.306 26.1484L119.607 21.4902H122.332L123.896 24.3291ZM132.475 19.1523V21.4902H134.101V23.3535H132.475V28.0996C132.475 28.4512 132.542 28.7031 132.677 28.8555C132.812 29.0078 133.069 29.084 133.45 29.084C133.731 29.084 133.98 29.0635 134.197 29.0225V30.9473C133.699 31.0996 133.187 31.1758 132.659 31.1758C130.878 31.1758 129.97 30.2764 129.935 28.4775V23.3535H128.546V21.4902H129.935V19.1523H132.475ZM139.893 31.1758C138.498 31.1758 137.361 30.748 136.482 29.8926C135.609 29.0371 135.173 27.8975 135.173 26.4736V26.2275C135.173 25.2725 135.357 24.4199 135.727 23.6699C136.096 22.9141 136.617 22.334 137.291 21.9297C137.971 21.5195 138.744 21.3145 139.611 21.3145C140.912 21.3145 141.935 21.7246 142.679 22.5449C143.429 23.3652 143.804 24.5283 143.804 26.0342V27.0713H137.748C137.83 27.6924 138.076 28.1904 138.486 28.5654C138.902 28.9404 139.427 29.1279 140.06 29.1279C141.038 29.1279 141.803 28.7734 142.354 28.0645L143.602 29.4619C143.221 30.001 142.705 30.4229 142.055 30.7275C141.404 31.0264 140.684 31.1758 139.893 31.1758ZM139.603 23.3711C139.099 23.3711 138.688 23.541 138.372 23.8809C138.062 24.2207 137.862 24.707 137.774 25.3398H141.308V25.1377C141.296 24.5752 141.144 24.1416 140.851 23.8369C140.558 23.5264 140.142 23.3711 139.603 23.3711ZM147.592 21.4902L147.671 22.5889C148.351 21.7393 149.262 21.3145 150.404 21.3145C151.412 21.3145 152.162 21.6104 152.654 22.2021C153.146 22.7939 153.398 23.6787 153.41 24.8564V31H150.87V24.918C150.87 24.3789 150.753 23.9893 150.519 23.749C150.284 23.5029 149.895 23.3799 149.35 23.3799C148.635 23.3799 148.099 23.6846 147.741 24.2939V31H145.201V21.4902H147.592ZM160.494 28.3721C160.494 28.0615 160.339 27.8184 160.028 27.6426C159.724 27.4609 159.231 27.2998 158.552 27.1592C156.29 26.6846 155.159 25.7236 155.159 24.2764C155.159 23.4326 155.508 22.7295 156.205 22.167C156.908 21.5986 157.825 21.3145 158.956 21.3145C160.163 21.3145 161.127 21.5986 161.848 22.167C162.574 22.7354 162.938 23.4736 162.938 24.3818H160.397C160.397 24.0186 160.28 23.7197 160.046 23.4854C159.812 23.2451 159.445 23.125 158.947 23.125C158.52 23.125 158.188 23.2217 157.954 23.415C157.72 23.6084 157.603 23.8545 157.603 24.1533C157.603 24.4346 157.734 24.6631 157.998 24.8389C158.268 25.0088 158.719 25.1582 159.352 25.2871C159.984 25.4102 160.518 25.5508 160.951 25.709C162.293 26.2012 162.964 27.0537 162.964 28.2666C162.964 29.1338 162.592 29.8369 161.848 30.376C161.104 30.9092 160.143 31.1758 158.965 31.1758C158.168 31.1758 157.459 31.0352 156.838 30.7539C156.223 30.4668 155.739 30.0771 155.388 29.585C155.036 29.0869 154.86 28.5508 154.86 27.9766H157.269C157.292 28.4277 157.459 28.7734 157.77 29.0137C158.08 29.2539 158.496 29.374 159.018 29.374C159.504 29.374 159.87 29.2832 160.116 29.1016C160.368 28.9141 160.494 28.6709 160.494 28.3721ZM167.288 31H164.739V21.4902H167.288V31ZM164.59 19.0293C164.59 18.6484 164.716 18.335 164.968 18.0889C165.226 17.8428 165.574 17.7197 166.014 17.7197C166.447 17.7197 166.793 17.8428 167.051 18.0889C167.309 18.335 167.438 18.6484 167.438 19.0293C167.438 19.416 167.306 19.7324 167.042 19.9785C166.784 20.2246 166.441 20.3477 166.014 20.3477C165.586 20.3477 165.24 20.2246 164.977 19.9785C164.719 19.7324 164.59 19.416 164.59 19.0293ZM168.993 26.1572C168.993 25.2139 169.175 24.373 169.538 23.6348C169.901 22.8965 170.423 22.3252 171.103 21.9209C171.788 21.5166 172.582 21.3145 173.484 21.3145C174.768 21.3145 175.813 21.707 176.622 22.4922C177.437 23.2773 177.891 24.3438 177.984 25.6914L178.002 26.3418C178.002 27.8008 177.595 28.9727 176.78 29.8574C175.966 30.7363 174.873 31.1758 173.502 31.1758C172.131 31.1758 171.035 30.7363 170.215 29.8574C169.4 28.9785 168.993 27.7832 168.993 26.2715V26.1572ZM171.533 26.3418C171.533 27.2441 171.703 27.9355 172.043 28.416C172.383 28.8906 172.869 29.1279 173.502 29.1279C174.117 29.1279 174.598 28.8936 174.943 28.4248C175.289 27.9502 175.462 27.1943 175.462 26.1572C175.462 25.2725 175.289 24.5869 174.943 24.1006C174.598 23.6143 174.111 23.3711 173.484 23.3711C172.863 23.3711 172.383 23.6143 172.043 24.1006C171.703 24.5811 171.533 25.3281 171.533 26.3418ZM181.904 21.4902L181.983 22.5889C182.663 21.7393 183.574 21.3145 184.717 21.3145C185.725 21.3145 186.475 21.6104 186.967 22.2021C187.459 22.7939 187.711 23.6787 187.723 24.8564V31H185.183V24.918C185.183 24.3789 185.065 23.9893 184.831 23.749C184.597 23.5029 184.207 23.3799 183.662 23.3799C182.947 23.3799 182.411 23.6846 182.054 24.2939V31H179.514V21.4902H181.904Z" fill="#12100C"/>
<path d="M36.4395 20.7991C35.9502 19.6211 34.9583 18.3494 34.1797 17.9477C34.8134 19.1903 35.18 20.4367 35.3202 21.3667C35.3202 21.3667 35.3202 21.3733 35.3225 21.3855C34.0489 18.2102 31.8889 16.9295 30.125 14.1419C30.0355 14.0012 29.9464 13.8606 29.8592 13.7102C29.81 13.6253 29.7702 13.5484 29.7355 13.4758C29.6624 13.3348 29.6059 13.1859 29.5672 13.0319C29.5675 13.0246 29.5651 13.0174 29.5604 13.0118C29.5557 13.0061 29.5491 13.0024 29.5419 13.0014C29.535 12.9995 29.5277 12.9995 29.5208 13.0014C29.5189 13.0023 29.5172 13.0034 29.5156 13.0047C29.5128 13.0047 29.51 13.008 29.5072 13.0089L29.5119 13.0028C26.682 14.6603 25.722 17.7264 25.6339 19.2606C24.5031 19.338 23.4218 19.7543 22.5312 20.4555C22.4382 20.3768 22.3408 20.3032 22.2397 20.2352C21.983 19.3367 21.9722 18.3858 22.2083 17.4817C21.0509 18.0091 20.1509 18.8411 19.4966 19.5775H19.4914C19.0447 19.0117 19.0761 17.1456 19.1014 16.7561C19.0962 16.7317 18.7686 16.9263 18.7264 16.9558C18.3322 17.237 17.9637 17.5526 17.6253 17.8989C17.2402 18.2894 16.8883 18.7113 16.5734 19.1603C15.8489 20.1871 15.3351 21.3472 15.0617 22.5738C15.0566 22.5981 15.0519 22.6234 15.0467 22.6483C15.0256 22.7472 14.9492 23.2436 14.9356 23.3514V23.3763C14.836 23.8892 14.774 24.4087 14.75 24.9306V24.9883C14.75 31.2095 19.7937 36.2533 26.015 36.2533C31.587 36.2533 36.2131 32.208 37.1192 26.8942C37.138 26.7503 37.1534 26.605 37.1703 26.4597C37.3944 24.5275 37.1455 22.4969 36.4395 20.7991ZM23.4552 29.6172C23.5077 29.642 23.5573 29.6697 23.6112 29.6941L23.6187 29.6988C23.5648 29.6725 23.51 29.6453 23.4556 29.6172H23.4552ZM35.3234 21.3906V21.3798V21.392V21.3906Z" fill="url(#paint0_linear_7_1051)"/>
<path d="M36.4396 20.799C35.9502 19.6211 34.9583 18.3494 34.1797 17.9476C34.8135 19.1903 35.1801 20.4367 35.3202 21.3667V21.3897C36.3833 24.2715 35.804 27.2022 34.9696 28.9928C33.6787 31.7631 30.5535 34.6028 25.6612 34.4645C20.3797 34.3145 15.7237 30.3906 14.8541 25.2554C14.6957 24.445 14.8541 24.0339 14.9338 23.3762C14.8368 23.8829 14.7997 24.0297 14.7515 24.9306V24.9883C14.7515 31.2095 19.7952 36.2533 26.0165 36.2533C31.5885 36.2533 36.2146 32.208 37.1207 26.8942C37.1394 26.7503 37.1549 26.605 37.1718 26.4597C37.3944 24.5275 37.1455 22.4969 36.4396 20.799V20.799Z" fill="url(#paint1_radial_7_1051)"/>
<path d="M36.4396 20.799C35.9502 19.6211 34.9583 18.3494 34.1797 17.9476C34.8135 19.1903 35.1801 20.4367 35.3202 21.3667V21.3897C36.3833 24.2715 35.804 27.2022 34.9696 28.9928C33.6787 31.7631 30.5535 34.6028 25.6612 34.4645C20.3797 34.3145 15.7237 30.3906 14.8541 25.2554C14.6957 24.445 14.8541 24.0339 14.9338 23.3762C14.8368 23.8829 14.7997 24.0297 14.7515 24.9306V24.9883C14.7515 31.2095 19.7952 36.2533 26.0165 36.2533C31.5885 36.2533 36.2146 32.208 37.1207 26.8942C37.1394 26.7503 37.1549 26.605 37.1718 26.4597C37.3944 24.5275 37.1455 22.4969 36.4396 20.799V20.799Z" fill="url(#paint2_radial_7_1051)"/>
<path d="M30.9651 22.1228C30.99 22.1402 31.012 22.1575 31.0354 22.1748C30.7527 21.6728 30.4005 21.2133 29.9892 20.8098C26.4876 17.3083 29.0714 13.217 29.5068 13.0089L29.5115 13.0028C26.6817 14.6603 25.7217 17.7264 25.6335 19.2606C25.7648 19.2517 25.8956 19.2405 26.0292 19.2405C28.1409 19.2405 29.9803 20.402 30.9651 22.1228Z" fill="url(#paint3_radial_7_1051)"/>
<path d="M26.036 22.8222C26.0177 23.1034 25.0277 24.0691 24.6813 24.0691C21.4779 24.0691 20.958 26.0069 20.958 26.0069C21.0986 27.6391 22.2358 28.983 23.6116 29.6941C23.6744 29.7264 23.7377 29.7555 23.7991 29.7845C23.9093 29.8314 24.0199 29.8783 24.13 29.92C24.6018 30.0864 25.0959 30.1812 25.5958 30.2013C31.2105 30.4647 32.2989 23.4878 28.2466 21.4619C29.2839 21.2814 30.3611 21.6991 30.9625 22.1214C29.9782 20.4006 28.1383 19.2391 26.0266 19.2391C25.893 19.2391 25.7622 19.2503 25.631 19.2592C24.501 19.3375 23.4208 19.7544 22.5311 20.4555C22.7032 20.6013 22.8972 20.7953 23.3055 21.1975C24.0714 21.9531 26.0318 22.7308 26.036 22.8222V22.8222Z" fill="url(#paint4_radial_7_1051)"/>
<path d="M26.036 22.8222C26.0177 23.1034 25.0277 24.0691 24.6813 24.0691C21.4779 24.0691 20.958 26.0069 20.958 26.0069C21.0986 27.6391 22.2358 28.983 23.6116 29.6941C23.6744 29.7264 23.7377 29.7555 23.7991 29.7845C23.9093 29.8314 24.0199 29.8783 24.13 29.92C24.6018 30.0864 25.0959 30.1812 25.5958 30.2013C31.2105 30.4647 32.2989 23.4878 28.2466 21.4619C29.2839 21.2814 30.3611 21.6991 30.9625 22.1214C29.9782 20.4006 28.1383 19.2391 26.0266 19.2391C25.893 19.2391 25.7622 19.2503 25.631 19.2592C24.501 19.3375 23.4208 19.7544 22.5311 20.4555C22.7032 20.6013 22.8972 20.7953 23.3055 21.1975C24.0714 21.9531 26.0318 22.7308 26.036 22.8222V22.8222Z" fill="url(#paint5_radial_7_1051)"/>
<path d="M22.0078 20.0809C22.0992 20.14 22.1742 20.1897 22.2421 20.2351C21.9855 19.3367 21.9746 18.3858 22.2107 17.4817C21.0534 18.009 20.1534 18.8411 19.499 19.5775C19.552 19.5761 21.1861 19.5465 22.0078 20.0809V20.0809Z" fill="url(#paint6_radial_7_1051)"/>
<path d="M14.8541 25.2554C15.7236 30.3906 20.3797 34.3145 25.6649 34.4645C30.5572 34.6028 33.6805 31.7631 34.9733 28.9928C35.8077 27.2017 36.3871 24.2715 35.3239 21.3897V21.3681C35.3239 21.3709 35.3239 21.3747 35.3263 21.3869C35.7257 23.9964 34.3986 26.5244 32.3239 28.2339C32.3218 28.2387 32.3198 28.2435 32.3178 28.2484C28.2749 31.5404 24.4063 30.2345 23.623 29.7015C23.5686 29.6753 23.5138 29.6481 23.4594 29.62C21.1021 28.495 20.1285 26.3458 20.3371 24.504C18.3472 24.504 17.6685 22.825 17.6685 22.825C17.6685 22.825 19.4554 21.5509 21.8104 22.659C23.9914 23.6856 26.0399 22.8254 26.0399 22.825C26.0357 22.7336 24.0754 21.9536 23.3108 21.2003C22.9025 20.7981 22.7085 20.604 22.5364 20.4583C22.4434 20.3795 22.346 20.306 22.2449 20.2379C22.1779 20.1911 22.1043 20.1442 22.0105 20.0837C21.1888 19.5494 19.5547 19.5789 19.5008 19.5803H19.4957C19.0489 19.0145 19.0804 17.1484 19.1057 16.7589C19.1005 16.7345 18.7729 16.929 18.7307 16.9586C18.3365 17.2398 17.968 17.5554 17.6296 17.9017C17.2444 18.2922 16.8926 18.7141 16.5777 19.1631C15.8532 20.1898 15.3394 21.35 15.066 22.5765C15.0571 22.5981 14.6563 24.3479 14.8541 25.2554V25.2554Z" fill="url(#paint7_radial_7_1051)"/>
<path d="M29.9892 20.8098C30.4005 21.2133 30.7527 21.6728 31.0354 22.1748C31.094 22.2188 31.1503 22.2658 31.2042 22.3155C33.7579 24.6667 32.422 27.9953 32.3203 28.2344C34.3949 26.5249 35.722 23.9969 35.3226 21.3873C34.049 18.2102 31.889 16.9295 30.1251 14.1419C30.0356 14.0012 29.9465 13.8606 29.8593 13.7102C29.8101 13.6253 29.7703 13.5484 29.7356 13.4758C29.6625 13.3348 29.606 13.1859 29.5673 13.0319C29.5676 13.0246 29.5652 13.0174 29.5605 13.0118C29.5558 13.0061 29.5492 13.0024 29.542 13.0014C29.5351 12.9995 29.5278 12.9995 29.5209 13.0014C29.519 13.0023 29.5173 13.0034 29.5157 13.0047C29.5129 13.0047 29.5101 13.008 29.5073 13.0089C29.0713 13.217 26.4876 17.3083 29.9892 20.8098V20.8098Z" fill="url(#paint8_radial_7_1051)"/>
<path d="M31.203 22.3131C31.1492 22.2635 31.0929 22.2165 31.0343 22.1725C31.0113 22.1552 30.9874 22.1378 30.964 22.1205C30.3626 21.6986 29.2854 21.2805 28.248 21.461C32.2999 23.4869 31.2119 30.4638 25.5973 30.2003C25.0974 30.1803 24.6033 30.0855 24.1315 29.9191C24.0213 29.8778 23.9107 29.8324 23.8005 29.7836C23.7368 29.7545 23.6735 29.7255 23.613 29.6931L23.6205 29.6978C24.4038 30.2322 28.2724 31.5381 32.3154 28.2447C32.3154 28.2447 32.3177 28.2386 32.3215 28.2302C32.4218 27.9953 33.7577 24.6667 31.203 22.3131Z" fill="url(#paint9_radial_7_1051)"/>
<path d="M20.9582 26.0069C20.9582 26.0069 21.4781 24.0691 24.6815 24.0691C25.0279 24.0691 26.0179 23.1025 26.0362 22.8222C26.0545 22.5419 23.9878 23.6828 21.8067 22.6562C19.4517 21.5481 17.6648 22.8222 17.6648 22.8222C17.6648 22.8222 18.3435 24.5012 20.3334 24.5012C20.1248 26.343 21.0984 28.4903 23.4557 29.6172C23.5082 29.642 23.5579 29.6697 23.6118 29.6941C22.236 28.9844 21.1003 27.6391 20.9582 26.0069Z" fill="url(#paint10_radial_7_1051)"/>
<path d="M36.4395 20.7991C35.9502 19.6211 34.9583 18.3494 34.1797 17.9477C34.8134 19.1903 35.18 20.4367 35.3202 21.3667C35.3202 21.3667 35.3202 21.3733 35.3225 21.3855C34.0489 18.2102 31.8889 16.9295 30.125 14.1419C30.0355 14.0012 29.9464 13.8606 29.8592 13.7102C29.81 13.6253 29.7702 13.5484 29.7355 13.4758C29.6624 13.3348 29.6059 13.1859 29.5672 13.0319C29.5675 13.0246 29.5651 13.0174 29.5604 13.0118C29.5557 13.0061 29.5491 13.0024 29.5419 13.0014C29.535 12.9995 29.5277 12.9995 29.5208 13.0014C29.5189 13.0023 29.5172 13.0034 29.5156 13.0047C29.5128 13.0047 29.51 13.008 29.5072 13.0089L29.5119 13.0028C26.682 14.6603 25.722 17.7264 25.6339 19.2606C25.7652 19.2517 25.8959 19.2405 26.0295 19.2405C28.1412 19.2405 29.9806 20.402 30.9655 22.1228C30.3641 21.7009 29.2869 21.2828 28.2495 21.4633C32.3014 23.4892 31.2134 30.4661 25.5987 30.2027C25.0989 30.1826 24.6048 30.0878 24.133 29.9214C24.0228 29.8802 23.9122 29.8347 23.802 29.7859C23.7383 29.7569 23.675 29.7278 23.6145 29.6955L23.622 29.7002C23.5677 29.6739 23.5128 29.6467 23.4584 29.6186C23.5109 29.6434 23.5606 29.6711 23.6145 29.6955C22.2359 28.9844 21.1002 27.6391 20.9581 26.0069C20.9581 26.0069 21.478 24.0691 24.6814 24.0691C25.0278 24.0691 26.0178 23.1025 26.0361 22.8222C26.0319 22.7308 24.0716 21.9508 23.307 21.1975C22.8987 20.7953 22.7047 20.6013 22.5327 20.4555C22.4396 20.3768 22.3422 20.3032 22.2411 20.2352C21.9844 19.3367 21.9736 18.3858 22.2097 17.4817C21.0523 18.0091 20.1523 18.8411 19.498 19.5775H19.4928C19.0461 19.0117 19.0775 17.1456 19.1028 16.7561C19.0977 16.7317 18.77 16.9263 18.7278 16.9558C18.3336 17.237 17.9652 17.5526 17.6267 17.8989C17.2416 18.2894 16.8897 18.7113 16.5748 19.1603C15.8503 20.1871 15.3365 21.3472 15.0631 22.5738C15.058 22.5981 15.0533 22.6234 15.0481 22.6483C15.027 22.7472 14.9314 23.2506 14.9183 23.3584C14.9183 23.3669 14.9183 23.3505 14.9183 23.3584C14.8305 23.8786 14.7743 24.4037 14.75 24.9306V24.9883C14.75 31.2095 19.7937 36.2533 26.015 36.2533C31.587 36.2533 36.2131 32.208 37.1192 26.8942C37.138 26.7503 37.1534 26.605 37.1703 26.4597C37.3944 24.5275 37.1455 22.4969 36.4395 20.7991ZM35.322 21.3775V21.3897V21.3775Z" fill="url(#paint11_linear_7_1051)"/>
<rect x="2.5" y="2.5" width="198" height="46" stroke="black"/>
<defs>
<filter id="filter0_d_7_1051" x="0" y="0.5" width="203" height="51" filterUnits="userSpaceOnUse" color-interpolation-filters="sRGB">
<feFlood flood-opacity="0" result="BackgroundImageFix"/>
<feColorMatrix in="SourceAlpha" type="matrix" values="0 0 0 0 0 0 0 0 0 0 0 0 0 0 0 0 0 0 127 0" result="hardAlpha"/>
<feOffset dy="0.5"/>
<feGaussianBlur stdDeviation="1"/>
<feColorMatrix type="matrix" values="0 0 0 0 0 0 0 0 0 0 0 0 0 0 0 0 0 0 0.1 0"/>
<feBlend mode="normal" in2="BackgroundImageFix" result="effect1_dropShadow_7_1051"/>
<feBlend mode="normal" in="SourceGraphic" in2="effect1_dropShadow_7_1051" result="shape"/>
</filter>
<linearGradient id="paint0_linear_7_1051" x1="34.9484" y1="16.6023" x2="16.2472" y2="34.6455" gradientUnits="userSpaceOnUse">
<stop offset="0.05" stop-color="#FFF44F"/>
<stop offset="0.11" stop-color="#FFE847"/>
<stop offset="0.22" stop-color="#FFC830"/>
<stop offset="0.37" stop-color="#FF980E"/>
<stop offset="0.4" stop-color="#FF8B16"/>
<stop offset="0.46" stop-color="#FF672A"/>
<stop offset="0.53" stop-color="#FF3647"/>
<stop offset="0.7" stop-color="#E31587"/>
</linearGradient>
<radialGradient id="paint1_radial_7_1051" cx="0" cy="0" r="1" gradientUnits="userSpaceOnUse" gradientTransform="translate(34.0841 15.5809) scale(23.4848)">
<stop offset="0.13" stop-color="#FFBD4F"/>
<stop offset="0.19" stop-color="#FFAC31"/>
<stop offset="0.25" stop-color="#FF9D17"/>
<stop offset="0.28" stop-color="#FF980E"/>
<stop offset="0.4" stop-color="#FF563B"/>
<stop offset="0.47" stop-color="#FF3750"/>
<stop offset="0.71" stop-color="#F5156C"/>
<stop offset="0.78" stop-color="#EB0878"/>
<stop offset="0.86" stop-color="#E50080"/>
</radialGradient>
<radialGradient id="paint2_radial_7_1051" cx="0" cy="0" r="1" gradientUnits="userSpaceOnUse" gradientTransform="translate(25.5027 25.1819) scale(23.4848)">
<stop offset="0.3" stop-color="#960E18"/>
<stop offset="0.35" stop-color="#B11927" stop-opacity="0.74"/>
<stop offset="0.43" stop-color="#DB293D" stop-opacity="0.34"/>
<stop offset="0.5" stop-color="#F5334B" stop-opacity="0.09"/>
<stop offset="0.53" stop-color="#FF3750" stop-opacity="0"/>
</radialGradient>
<radialGradient id="paint3_radial_7_1051" cx="0" cy="0" r="1" gradientUnits="userSpaceOnUse" gradientTransform="translate(28.3345 10.2512) scale(17.0138)">
<stop offset="0.13" stop-color="#FFF44F"/>
<stop offset="0.25" stop-color="#FFDC3E"/>
<stop offset="0.51" stop-color="#FF9D12"/>
<stop offset="0.53" stop-color="#FF980E"/>
</radialGradient>
<radialGradient id="paint4_radial_7_1051" cx="0" cy="0" r="1" gradientUnits="userSpaceOnUse" gradientTransform="translate(22.9052 31.3164) scale(11.182)">
<stop offset="0.35" stop-color="#3A8EE6"/>
<stop offset="0.47" stop-color="#5C79F0"/>
<stop offset="0.67" stop-color="#9059FF"/>
<stop offset="1" stop-color="#C139E6"/>
</radialGradient>
<radialGradient id="paint5_radial_7_1051" cx="0" cy="0" r="1" gradientUnits="userSpaceOnUse" gradientTransform="translate(25.8398 22.3908) rotate(-13.8972) scale(5.9243 6.95964)">
<stop offset="0.21" stop-color="#9059FF" stop-opacity="0"/>
<stop offset="0.28" stop-color="#8C4FF3" stop-opacity="0.06"/>
<stop offset="0.75" stop-color="#7716A8" stop-opacity="0.45"/>
<stop offset="0.97" stop-color="#6E008B" stop-opacity="0.6"/>
</radialGradient>
<radialGradient id="paint6_radial_7_1051" cx="0" cy="0" r="1" gradientUnits="userSpaceOnUse" gradientTransform="translate(25.2061 14.62) scale(8.04469)">
<stop stop-color="#FFE226"/>
<stop offset="0.12" stop-color="#FFDB27"/>
<stop offset="0.3" stop-color="#FFC82A"/>
<stop offset="0.5" stop-color="#FFA930"/>
<stop offset="0.73" stop-color="#FF7E37"/>
<stop offset="0.79" stop-color="#FF7139"/>
</radialGradient>
<radialGradient id="paint7_radial_7_1051" cx="0" cy="0" r="1" gradientUnits="userSpaceOnUse" gradientTransform="translate(31.5294 9.51763) scale(34.3223)">
<stop offset="0.11" stop-color="#FFF44F"/>
<stop offset="0.46" stop-color="#FF980E"/>
<stop offset="0.62" stop-color="#FF5634"/>
<stop offset="0.72" stop-color="#FF3647"/>
<stop offset="0.9" stop-color="#E31587"/>
</radialGradient>
<radialGradient id="paint8_radial_7_1051" cx="0" cy="0" r="1" gradientUnits="userSpaceOnUse" gradientTransform="translate(28.2118 13.2676) rotate(84.2321) scale(25.0176 16.4367)">
<stop stop-color="#FFF44F"/>
<stop offset="0.06" stop-color="#FFE847"/>
<stop offset="0.17" stop-color="#FFC830"/>
<stop offset="0.3" stop-color="#FF980E"/>
<stop offset="0.36" stop-color="#FF8B16"/>
<stop offset="0.45" stop-color="#FF672A"/>
<stop offset="0.57" stop-color="#FF3647"/>
<stop offset="0.74" stop-color="#E31587"/>
</radialGradient>
<radialGradient id="paint9_radial_7_1051" cx="0" cy="0" r="1" gradientUnits="userSpaceOnUse" gradientTransform="translate(25.0165 17.5994) scale(21.4275)">
<stop offset="0.14" stop-color="#FFF44F"/>
<stop offset="0.48" stop-color="#FF980E"/>
<stop offset="0.59" stop-color="#FF5634"/>
<stop offset="0.66" stop-color="#FF3647"/>
<stop offset="0.9" stop-color="#E31587"/>
</radialGradient>
<radialGradient id="paint10_radial_7_1051" cx="0" cy="0" r="1" gradientUnits="userSpaceOnUse" gradientTransform="translate(30.6731 18.8537) scale(23.4525)">
<stop offset="0.09" stop-color="#FFF44F"/>
<stop offset="0.23" stop-color="#FFE141"/>
<stop offset="0.51" stop-color="#FFAF1E"/>
<stop offset="0.63" stop-color="#FF980E"/>
</radialGradient>
<linearGradient id="paint11_linear_7_1051" x1="34.7234" y1="16.5058" x2="18.8112" y2="32.4184" gradientUnits="userSpaceOnUse">
<stop offset="0.17" stop-color="#FFF44F" stop-opacity="0.8"/>
<stop offset="0.27" stop-color="#FFF44F" stop-opacity="0.63"/>
<stop offset="0.49" stop-color="#FFF44F" stop-opacity="0.22"/>
<stop offset="0.6" stop-color="#FFF44F" stop-opacity="0"/>
</linearGradient>
</defs>
</svg>
